<svg version="1.2" xmlns="http://www.w3.org/2000/svg" viewBox="0 0 55 64" width="55" height="64">
	<title>logo-ctt-svg</title>
	<style>
		.s0 { fill: #183B57 }
	</style>
	<path class="s0" d="m54.1 43.4h-24.4q-0.4 0.1-0.7 0.4-0.2 0.3-0.2 0.7 0 0.4 0.2 0.8 0.3 0.3 0.8 0.3h24.3"/>
	<path class="s0" d="m54.1 35.7h-30.9c-0.3-0.1-0.6 0-0.8 0.2-0.3 0.2-0.4 0.5-0.4 0.9 0 0.3 0.1 0.6 0.4 0.8 0.2 0.2 0.5 0.3 0.8 0.2h30.9"/>
	<path class="s0" d="m54.1 51.2h-20.9c-0.3 0-0.7 0.1-0.9 0.3-0.2 0.2-0.3 0.5-0.3 0.8 0 0.3 0.1 0.6 0.3 0.8 0.2 0.2 0.6 0.3 0.9 0.3h20.9"/>
	<path class="s0" d="m54.1 59h-19.6q-0.5 0-0.8 0.4-0.2 0.3-0.2 0.7 0 0.4 0.2 0.7 0.3 0.3 0.8 0.4h19.6"/>
	<path class="s0" d="m9.2 53.4q0.6 0.6 1.1 1.4 0.6 0.8 0.9 1.6 0.4 0.9 0.6 1.8 0.2 0.9 0.2 1.8 0 0.2-0.1 0.4 0 0.2-0.2 0.4-0.1 0.1-0.3 0.2-0.2 0.1-0.4 0.1-0.2 0-0.4 0-0.2-0.1-0.4-0.3-0.1-0.1-0.2-0.3-0.1-0.2-0.1-0.4 0-1.5-0.6-2.8-0.6-1.3-1.6-2.3-1.1-1.1-2.4-1.6-1.4-0.6-2.8-0.6h-0.3q-0.2 0-0.4 0-0.2-0.1-0.4-0.3-0.1-0.1-0.2-0.3-0.1-0.2-0.1-0.4 0-0.2 0-0.5 0.1-0.2 0.3-0.3 0.1-0.2 0.3-0.3 0.2-0.1 0.4-0.1h0.3q1 0 1.9 0.2 0.9 0.2 1.8 0.5 0.8 0.4 1.6 0.9 0.8 0.5 1.5 1.2z"/>
	<path class="s0" d="m2.7 43h-0.6c-0.3 0-0.6 0.1-0.8 0.3-0.2 0.2-0.3 0.5-0.3 0.8 0 0.3 0.1 0.6 0.4 0.8 0.2 0.2 0.5 0.3 0.8 0.3h0.5c1.9 0 3.9 0.4 5.7 1.1 1.8 0.8 3.5 1.9 4.9 3.2 1.4 1.4 2.5 3 3.3 4.8 0.8 1.9 1.2 3.8 1.3 5.7q0 0.3 0.1 0.5 0.1 0.2 0.2 0.3 0.2 0.2 0.4 0.3 0.2 0.1 0.4 0 0.2 0 0.4 0 0.2-0.1 0.4-0.3 0.1-0.2 0.2-0.4 0.1-0.2 0.1-0.4-0.1-1.7-0.4-3.3-0.4-1.7-1.1-3.2-0.6-1.6-1.6-2.9-0.9-1.4-2.1-2.6-1.3-1.2-2.7-2.1-1.4-1-2.9-1.6-1.6-0.6-3.3-1-1.6-0.3-3.3-0.3z"/>
	<path class="s0" d="m2.9 35.6h-0.8c-0.3 0-0.6 0.1-0.8 0.4-0.2 0.2-0.3 0.5-0.3 0.8 0 0.3 0.1 0.6 0.4 0.8 0.2 0.2 0.5 0.3 0.8 0.2h0.7c3 0.1 5.9 0.6 8.6 1.8 2.7 1.1 5.2 2.7 7.3 4.8 2.1 2 3.8 4.5 5 7.1 1.1 2.7 1.8 5.6 1.9 8.6q0 0.2 0.1 0.4 0.1 0.2 0.2 0.3 0.2 0.2 0.4 0.3 0.2 0 0.4 0 0.2 0 0.4 0 0.2-0.1 0.4-0.3 0.1-0.2 0.2-0.4 0.1-0.2 0.1-0.4-0.1-2.4-0.6-4.8-0.5-2.3-1.5-4.6-0.9-2.2-2.3-4.2-1.4-2-3.1-3.7-1.8-1.7-3.8-3-2-1.3-4.3-2.2-2.2-0.9-4.6-1.4-2.4-0.5-4.8-0.5z"/>
	<path class="s0" d="m54.1 43.4h-24.4q-0.4 0.1-0.7 0.4-0.2 0.3-0.2 0.7 0 0.4 0.2 0.8 0.3 0.3 0.8 0.3h24.3"/>
	<path class="s0" d="m54.1 35.7h-30.9c-0.3-0.1-0.6 0-0.8 0.2-0.3 0.2-0.4 0.5-0.4 0.9 0 0.3 0.1 0.6 0.4 0.8 0.2 0.2 0.5 0.3 0.8 0.2h30.9"/>
	<path class="s0" d="m54.1 51.2h-20.9c-0.3 0-0.7 0.1-0.9 0.3-0.2 0.2-0.3 0.5-0.3 0.8 0 0.3 0.1 0.6 0.3 0.8 0.2 0.2 0.6 0.3 0.9 0.3h20.9"/>
	<path class="s0" d="m54.1 59h-19.6q-0.5 0-0.8 0.4-0.2 0.3-0.2 0.7 0 0.4 0.2 0.7 0.3 0.3 0.8 0.4h19.6"/>
	<path class="s0" d="m5.6 28.7q-0.7-0.4-1.3-0.8-0.5-0.5-1.1-1-0.5-0.5-0.9-1.1-0.5-0.6-0.8-1.3-0.4-0.7-0.7-1.4-0.3-0.7-0.4-1.4-0.2-0.8-0.3-1.5-0.1-0.8-0.1-1.6 0-0.7 0.1-1.5 0.1-0.8 0.2-1.6 0.2-0.7 0.5-1.4 0.3-0.8 0.6-1.5 0.4-0.6 0.8-1.2 0.4-0.6 0.9-1.1 0.5-0.5 1.1-1 0.6-0.4 1.2-0.8 0.7-0.4 1.4-0.6 0.7-0.3 1.4-0.5 0.8-0.2 1.5-0.3 0.8-0.1 1.6-0.1 1.1 0 2.3 0.3 1.1 0.2 2.2 0.7 1 0.5 1.9 1.2 1 0.7 1.7 1.6 0.1 0.1 0.2 0.2 0.1 0.2 0.1 0.3 0.1 0.1 0.1 0.3 0 0.1 0 0.3 0 0.2 0 0.4-0.1 0.3-0.2 0.5-0.2 0.2-0.3 0.3-0.2 0.2-0.4 0.3-0.1 0.1-0.2 0.1-0.1 0.1-0.3 0.1-0.1 0.1-0.2 0.1-0.2 0-0.3 0-0.2 0-0.4 0-0.2-0.1-0.4-0.2-0.2-0.1-0.4-0.2-0.2-0.1-0.3-0.3-0.3-0.3-0.5-0.5-0.3-0.2-0.6-0.4-0.3-0.3-0.6-0.4-0.3-0.2-0.6-0.3-0.4-0.2-0.7-0.3-0.3-0.1-0.7-0.1-0.4-0.1-0.7-0.1-0.4-0.1-0.7-0.1-0.8 0-1.5 0.1-0.7 0.2-1.4 0.5-0.6 0.2-1.2 0.7-0.6 0.4-1.1 0.9-0.5 0.6-0.9 1.2-0.4 0.7-0.7 1.4-0.2 0.8-0.4 1.5-0.1 0.8 0 1.6 0 0.5 0 1 0.1 0.5 0.2 1 0.1 0.5 0.3 1 0.2 0.5 0.4 1 0.2 0.4 0.5 0.8 0.3 0.4 0.6 0.7 0.4 0.4 0.7 0.7 0.4 0.3 0.8 0.6 0.5 0.2 0.9 0.4 0.5 0.2 1 0.3 0.5 0.1 1 0.2 0.5 0.1 1 0.1 0.6 0 1.2-0.1 0.6-0.1 1.2-0.3 0.6-0.1 1.1-0.4 0.6-0.3 1.1-0.7 0.1-0.1 0.3-0.2 0.2-0.1 0.4-0.2 0.2-0.1 0.4-0.1 0.2-0.1 0.4-0.1 0.1 0 0.3 0 0.1 0.1 0.3 0.1 0.1 0.1 0.2 0.1 0.2 0.1 0.3 0.2 0.2 0.1 0.3 0.3 0.1 0.2 0.2 0.4 0.1 0.1 0.2 0.4 0.1 0.2 0.1 0.4 0 0.1-0.1 0.3 0 0.2-0.1 0.3 0 0.1-0.1 0.3-0.1 0.1-0.2 0.2-0.8 0.7-1.7 1.2-0.8 0.6-1.8 0.9-1 0.4-2 0.6-1 0.1-2 0.1-0.8 0-1.6-0.1-0.7-0.1-1.5-0.3-0.7-0.2-1.4-0.5-0.7-0.3-1.4-0.6z"/>
	<path class="s0" d="m37.1 26.4q0.2 0.2 0.3 0.3 0.1 0.2 0.1 0.4 0.1 0.2 0.1 0.4 0.1 0.2 0 0.4 0.1 0.2 0 0.4 0 0.2-0.1 0.4-0.1 0.2-0.2 0.4-0.2 0.2-0.3 0.3-0.2 0.2-0.4 0.3-0.2 0.1-0.5 0.2-0.2 0-0.4 0.1-0.3 0-0.5 0h-0.7q-0.5 0-1-0.1-0.5 0-1-0.2-0.5-0.1-0.9-0.3-0.5-0.2-0.9-0.5-0.4-0.2-0.8-0.6-0.4-0.3-0.7-0.7-0.3-0.3-0.6-0.7-0.3-0.5-0.5-0.9-0.3-0.5-0.5-1-0.1-0.5-0.3-1-0.1-0.5-0.2-1.1 0-0.5 0-1v-10.2h-1.9q-0.2 0-0.4-0.1-0.2 0-0.3-0.1-0.2 0-0.4-0.1-0.2-0.1-0.3-0.2-0.1-0.2-0.2-0.3-0.1-0.2-0.2-0.3-0.1-0.2-0.1-0.3-0.1-0.2-0.1-0.4 0-0.2 0.1-0.4 0-0.2 0.1-0.3 0-0.2 0.2-0.4 0.1-0.1 0.2-0.2 0.1-0.2 0.3-0.3 0.2-0.1 0.4-0.1 0.1-0.1 0.3-0.1 0.2 0 0.4 0h1.9v-6q0-0.2 0-0.4 0.1-0.2 0.2-0.4 0-0.2 0.1-0.4 0.2-0.2 0.3-0.3 0.2-0.2 0.3-0.3 0.2-0.1 0.4-0.2 0.2 0 0.4-0.1 0.2 0 0.4 0 0.2 0 0.4 0 0.2 0.1 0.4 0.1 0.2 0.1 0.4 0.2 0.2 0.1 0.3 0.3 0.1 0.1 0.3 0.3 0.1 0.2 0.1 0.4 0.1 0.2 0.2 0.4 0 0.2 0 0.4v6h3.5q0.2 0 0.4 0 0.2 0 0.4 0.1 0.2 0.1 0.3 0.2 0.2 0.1 0.3 0.2 0.2 0.1 0.3 0.3 0.1 0.1 0.1 0.3 0.1 0.2 0.2 0.3 0 0.2 0 0.4 0 0.2-0.1 0.4 0 0.1-0.1 0.3 0 0.2-0.1 0.3-0.1 0.1-0.3 0.3-0.1 0.1-0.3 0.2-0.1 0.1-0.3 0.1-0.2 0.1-0.4 0.1-0.2 0.1-0.4 0.1h-3.5v10.2q0 0.4 0 0.8 0.1 0.3 0.2 0.7 0.1 0.4 0.3 0.7 0.2 0.3 0.4 0.6 0.2 0.3 0.4 0.5 0.3 0.2 0.6 0.3 0.3 0.2 0.6 0.3 0.3 0 0.7 0h1.4q0.1 0 0.3 0.1 0.2 0 0.4 0.1 0.1 0.1 0.3 0.2 0.1 0.1 0.2 0.2z"/>
	<path class="s0" d="m53.8 26.4q0.1 0.2 0.2 0.3 0.1 0.2 0.2 0.4 0.1 0.2 0.1 0.4 0 0.2 0 0.4 0 0.2 0 0.4 0 0.2-0.1 0.4-0.1 0.2-0.3 0.4-0.1 0.2-0.3 0.3-0.1 0.2-0.4 0.3-0.2 0.1-0.4 0.2-0.2 0-0.4 0.1-0.3 0-0.5 0h-0.8q-0.5 0-1-0.1-0.4 0-0.9-0.2-0.5-0.1-0.9-0.3-0.5-0.2-0.9-0.5-0.4-0.2-0.8-0.6-0.4-0.3-0.7-0.7-0.4-0.3-0.6-0.7-0.3-0.5-0.5-0.9-0.3-0.5-0.5-1-0.2-0.5-0.3-1-0.1-0.5-0.2-1.1 0-0.5 0-1v-10.2h-1.9q-0.2 0-0.4-0.1-0.2 0-0.4-0.1-0.1 0-0.3-0.1-0.2-0.1-0.3-0.2-0.2-0.2-0.3-0.3-0.1-0.2-0.1-0.3-0.1-0.2-0.1-0.4-0.1-0.1-0.1-0.3 0-0.2 0.1-0.4 0-0.2 0.1-0.3 0-0.2 0.1-0.3 0.1-0.2 0.3-0.3 0.1-0.2 0.3-0.3 0.2-0.1 0.3-0.1 0.2-0.1 0.4-0.1 0.2 0 0.4 0h1.9v-6q0-0.2 0-0.4 0.1-0.2 0.1-0.4 0.1-0.2 0.2-0.4 0.1-0.2 0.3-0.3 0.1-0.2 0.3-0.3 0.2-0.1 0.4-0.2 0.2 0 0.4-0.1 0.2 0 0.4 0 0.2 0 0.4 0 0.2 0.1 0.4 0.1 0.2 0.1 0.4 0.2 0.1 0.1 0.3 0.3 0.1 0.1 0.3 0.3 0.1 0.2 0.1 0.4 0.1 0.2 0.2 0.4 0 0.2 0 0.4v6h3.5q0.2 0 0.4 0 0.2 0 0.4 0.1 0.1 0.1 0.3 0.2 0.2 0.1 0.3 0.2 0.2 0.1 0.3 0.3 0.1 0.1 0.1 0.3 0.1 0.2 0.1 0.3 0.1 0.2 0.1 0.4 0 0.2-0.1 0.4 0 0.1-0.1 0.3 0 0.2-0.1 0.3-0.1 0.1-0.3 0.3-0.1 0.1-0.3 0.2-0.2 0.1-0.3 0.1-0.2 0.1-0.4 0.1-0.2 0.1-0.4 0.1h-3.5v10.2q0 0.4 0 0.8 0.1 0.3 0.2 0.7 0.1 0.4 0.3 0.7 0.2 0.3 0.4 0.6 0.2 0.3 0.5 0.5 0.2 0.2 0.5 0.3 0.3 0.2 0.6 0.3 0.3 0 0.7 0h1.4q0.2 0 0.3 0.1 0.2 0 0.4 0.1 0.1 0.1 0.3 0.2 0.1 0.1 0.2 0.2z"/>
	<path class="s0" d="m54.1 43.4h-24.4q-0.4 0.1-0.7 0.4-0.2 0.3-0.2 0.7 0 0.4 0.2 0.8 0.3 0.3 0.8 0.3h24.3"/>
	<path class="s0" d="m54.1 35.7h-30.9c-0.3-0.1-0.6 0-0.8 0.2-0.3 0.2-0.4 0.5-0.4 0.9 0 0.3 0.1 0.6 0.4 0.8 0.2 0.2 0.5 0.3 0.8 0.2h30.9"/>
	<path class="s0" d="m54.1 51.2h-20.9c-0.3 0-0.7 0.1-0.9 0.3-0.2 0.2-0.3 0.5-0.3 0.8 0 0.3 0.1 0.6 0.3 0.8 0.2 0.2 0.6 0.3 0.9 0.3h20.9"/>
	<path class="s0" d="m54.1 59h-19.6q-0.5 0-0.8 0.4-0.2 0.3-0.2 0.7 0 0.4 0.2 0.7 0.3 0.3 0.8 0.4h19.6"/>
	<path class="s0" d="m63.3 40.7q-0.2-0.1-0.4-0.3-0.2-0.1-0.4-0.3-0.2-0.2-0.3-0.4-0.2-0.2-0.3-0.4-0.2-0.5-0.4-1-0.1-0.5-0.1-1 0-0.5 0.1-1 0.2-0.5 0.4-1 0.1-0.2 0.3-0.4 0.1-0.2 0.3-0.4 0.2-0.2 0.4-0.3 0.2-0.2 0.4-0.3 0.2-0.2 0.4-0.3 0.3-0.1 0.5-0.1 0.3-0.1 0.5-0.1 0.3-0.1 0.5-0.1 0.2 0 0.3 0.1 0.2 0 0.4 0 0.1 0 0.3 0.1 0.1 0 0.3 0 0.1 0.1 0.3 0.2 0.1 0 0.3 0.1 0.1 0.1 0.2 0.2 0.2 0.1 0.3 0.2 0 0 0 0 0.1 0 0.1 0.1 0 0 0 0 0 0 0 0.1 0.1 0 0.1 0 0 0.1 0 0.1 0 0 0 0 0 0.1-0.1 0.1 0.1 0 0 0.1 0 0 0 0.1 0 0 0 0.1-0.1 0-0.1 0 0 0-0.1 0.1 0 0 0 0-0.1 0-0.1 0-0.1 0-0.1 0-0.1 0-0.1 0 0 0-0.1 0 0 0 0 0-0.1 0-0.1 0-0.1-0.1-0.2-0.1-0.1-0.1-0.2-0.2-0.1 0-0.2-0.1-0.1-0.1-0.2-0.1-0.1 0-0.2-0.1-0.2 0-0.3 0-0.1 0-0.2 0-0.2-0.1-0.3-0.1-0.2 0-0.4 0.1-0.1 0-0.3 0-0.2 0.1-0.4 0.2-0.1 0.1-0.3 0.1-0.2 0.2-0.3 0.3-0.1 0.1-0.3 0.2-0.1 0.2-0.2 0.3-0.1 0.2-0.2 0.3-0.2 0.4-0.3 0.8-0.1 0.3-0.1 0.7 0 0.4 0.1 0.8 0.1 0.4 0.3 0.7 0.1 0.2 0.2 0.4 0.1 0.1 0.2 0.3 0.2 0.1 0.3 0.2 0.1 0.1 0.3 0.2 0.2 0.1 0.3 0.2 0.2 0.1 0.4 0.1 0.2 0.1 0.3 0.1 0.2 0 0.4 0 0.3 0 0.5 0 0.2-0.1 0.5-0.1 0.2-0.1 0.4-0.2 0.2-0.2 0.4-0.3 0 0 0.1-0.1 0 0 0.1 0 0 0 0 0 0.1 0 0.1 0 0.1 0 0.1 0 0.1 0 0.1 0 0 0 0.1 0 0 0.1 0 0.1 0.1 0 0.1 0.1 0 0 0 0.1 0 0 0.1 0.1 0 0 0 0.1 0 0-0.1 0.1 0 0 0 0 0 0.1 0 0.1-0.1 0.1-0.1 0.1-0.2 0.2-0.5 0.4-0.3 0.1-0.6 0.2-0.3 0.2-0.6 0.2-0.4 0.1-0.7 0.1-0.2 0-0.5-0.1-0.2 0-0.5-0.1-0.2-0.1-0.5-0.2-0.2-0.1-0.4-0.2z"/>
	<path fill-rule="evenodd" class="s0" d="m75.9 40.6q0 0.1 0 0.1 0 0.1 0 0.1-0.1 0.1-0.1 0.1 0 0.1-0.1 0.1 0 0-0.1 0.1-0.1 0-0.2 0-0.1 0-0.1 0-0.1 0-0.2 0 0-0.1-0.1-0.1 0 0 0 0 0-0.1-0.1-0.1 0 0 0-0.1l-0.5-1.3h-3.6l-0.5 1.3q0 0.1 0 0.1-0.1 0-0.1 0 0 0.1 0 0.1-0.1 0-0.1 0.1 0 0-0.1 0 0 0 0 0-0.1 0-0.1 0 0 0-0.1 0 0 0-0.1 0 0 0-0.1 0 0 0-0.1-0.1 0 0 0 0-0.1-0.1-0.1-0.1 0 0 0-0.1-0.1 0-0.1-0.1 0 0 0-0.1 0 0 0 0 0-0.1 0-0.1 0 0 0.1 0 0-0.1 0-0.1l2.7-6.6q0 0 0.1-0.1 0-0.1 0.1-0.1 0.1-0.1 0.1-0.1 0.1 0 0.2 0 0.1 0 0.2 0 0 0 0.1 0.1 0.1 0 0.1 0.1 0.1 0.1 0.1 0.1l2.7 6.6q0.1 0 0.1 0.1 0 0 0 0 0 0 0 0.1 0 0 0 0zm-1.9-2l-1.4-3.5-1.4 3.5z"/>
	<path class="s0" d="m85.3 33.6q0 0.1 0 0.1 0 0.1 0.1 0.1 0 0 0 0.1 0 0 0 0.1v6.6q0 0.1 0 0.1 0 0.1 0 0.1-0.1 0.1-0.1 0.1 0 0.1-0.1 0.1 0 0 0 0.1-0.1 0-0.1 0-0.1 0-0.1 0-0.1 0-0.1 0-0.1 0-0.2 0-0.1 0-0.2-0.1-0.1-0.1-0.1-0.2 0-0.1 0-0.2v-4.8l-2.4 4.8q0 0-0.1 0.1 0 0-0.1 0.1 0 0-0.1 0-0.1 0-0.1 0-0.1 0-0.2 0-0.1 0-0.1 0-0.1-0.1-0.1-0.1-0.1-0.1-0.1-0.2l-2.4-4.6v4.7q0 0.1 0 0.1 0 0.1 0 0.1 0 0.1 0 0.1-0.1 0.1-0.1 0.1 0 0-0.1 0.1 0 0-0.1 0 0 0-0.1 0 0 0-0.1 0 0 0-0.1 0 0 0-0.1 0 0 0-0.1 0 0-0.1 0-0.1-0.1 0-0.1-0.1 0 0 0-0.1-0.1 0-0.1-0.1 0 0 0-0.1v-6.6q0-0.1 0.1-0.2 0-0.1 0.1-0.2 0 0 0.1-0.1 0.1 0 0.2 0 0.1 0 0.2 0 0 0 0.1 0.1 0.1 0 0.1 0 0.1 0.1 0.1 0.2l2.9 5.8 2.8-5.8q0.1-0.1 0.1-0.2 0.1 0 0.1 0 0.1-0.1 0.1-0.1 0.1 0 0.2 0 0 0 0.1 0 0 0 0.1 0 0 0 0.1 0.1 0 0 0.1 0z"/>
	<path fill-rule="evenodd" class="s0" d="m88.2 41q0 0 0-0.1-0.1 0-0.1-0.1 0 0 0-0.1 0 0 0-0.1v-6.6q0-0.1 0-0.1 0-0.1 0-0.1 0 0 0.1-0.1 0 0 0-0.1 0.1 0 0.1 0 0.1-0.1 0.1-0.1 0 0 0.1 0 0 0 0.1 0h2q0.2 0 0.3 0 0.2 0 0.4 0.1 0.1 0 0.3 0.1 0.2 0 0.3 0.1 0.1 0.1 0.3 0.2 0.1 0.1 0.2 0.2 0.1 0.1 0.2 0.2 0.1 0.2 0.2 0.3 0.1 0.2 0.1 0.3 0.1 0.2 0.1 0.3 0 0.2 0.1 0.4 0 0.1 0 0.3 0 0.2-0.1 0.3 0 0.2 0 0.4-0.1 0.1-0.1 0.3-0.1 0.1-0.2 0.3 0 0.1-0.1 0.2-0.1 0.2-0.2 0.3-0.2 0.1-0.3 0.2-0.1 0.1-0.2 0.2-0.2 0-0.4 0.1-0.1 0-0.3 0.1-0.1 0-0.3 0-0.2 0.1-0.3 0.1h-1.5v2.1q0 0.1 0 0.1 0 0.1 0 0.1 0 0.1 0 0.1-0.1 0.1-0.1 0.1 0 0-0.1 0.1 0 0-0.1 0 0 0-0.1 0 0 0-0.1 0 0 0-0.1 0 0 0-0.1 0 0 0-0.1 0 0-0.1-0.1-0.1zm2.3-3.5q0.2 0.1 0.4 0 0.1 0 0.2-0.1 0.2 0 0.3-0.1 0.1-0.1 0.2-0.2 0.2-0.1 0.2-0.2 0.1-0.1 0.2-0.3 0-0.1 0.1-0.3 0-0.1 0-0.3 0-0.2 0-0.3-0.1-0.2-0.1-0.3-0.1-0.2-0.2-0.3 0-0.1-0.2-0.2-0.1-0.2-0.2-0.2-0.1-0.1-0.3-0.2-0.1 0-0.2-0.1-0.2 0-0.4 0h-1.4v3.1z"/>
	<path fill-rule="evenodd" class="s0" d="m96.4 40.7q-0.2-0.1-0.4-0.2-0.2-0.2-0.4-0.4-0.1-0.1-0.3-0.3-0.1-0.2-0.2-0.5-0.2-0.2-0.3-0.4 0-0.3-0.1-0.5-0.1-0.3-0.1-0.5 0-0.3 0-0.6 0-0.2 0-0.5 0-0.2 0.1-0.5 0-0.2 0.1-0.5 0.1-0.2 0.3-0.5 0.1-0.2 0.2-0.4 0.2-0.2 0.3-0.4 0.2-0.1 0.4-0.3 0.2-0.1 0.4-0.3 0.3-0.1 0.5-0.2 0.2-0.1 0.5-0.1 0.3-0.1 0.5-0.1 0.3-0.1 0.5-0.1 0.3 0 0.6 0.1 0.2 0 0.5 0.1 0.2 0 0.5 0.1 0.2 0.1 0.4 0.2 0.2 0.2 0.4 0.3 0.2 0.2 0.4 0.3 0.2 0.2 0.3 0.4 0.2 0.2 0.3 0.4 0.1 0.3 0.2 0.5 0.1 0.3 0.2 0.5 0 0.3 0.1 0.5 0 0.3 0 0.5 0 0.3 0 0.6-0.1 0.2-0.1 0.5-0.1 0.2-0.2 0.5-0.1 0.2-0.2 0.4-0.1 0.3-0.3 0.5-0.1 0.2-0.3 0.3-0.2 0.2-0.4 0.4-0.2 0.1-0.4 0.2-0.2 0.2-0.4 0.3-0.3 0.1-0.5 0.1-0.3 0.1-0.5 0.1-0.3 0-0.6 0-0.2 0-0.5 0-0.2 0-0.5-0.1-0.3-0.1-0.5-0.1-0.2-0.1-0.5-0.3zm3.5-0.8q0.2-0.1 0.4-0.2 0.1-0.1 0.2-0.3 0.2-0.1 0.3-0.2 0.1-0.2 0.1-0.4 0.2-0.3 0.3-0.7 0.1-0.4 0.1-0.8 0-0.4-0.1-0.7-0.1-0.4-0.3-0.8 0-0.1-0.1-0.3-0.1-0.1-0.3-0.3-0.1-0.1-0.2-0.2-0.2-0.2-0.4-0.3-0.3-0.1-0.7-0.2-0.4-0.1-0.8-0.1-0.3 0-0.7 0.1-0.4 0.1-0.8 0.2-0.1 0.1-0.3 0.3-0.1 0.1-0.2 0.2-0.2 0.2-0.3 0.3-0.1 0.2-0.2 0.3-0.1 0.4-0.2 0.8-0.1 0.3-0.1 0.7 0 0.4 0.1 0.8 0.1 0.4 0.2 0.7 0.1 0.2 0.2 0.4 0.1 0.1 0.3 0.2 0.1 0.2 0.2 0.3 0.2 0.1 0.3 0.2 0.4 0.2 0.8 0.3 0.4 0.1 0.7 0.1 0.4 0 0.8-0.1 0.4-0.1 0.7-0.3z"/>
	<path class="s0" d="m67 44.5q0 0 0.1 0.1 0 0 0 0.1 0 0 0 0.1 0 0 0 0.1 0 0 0 0 0 0.1 0 0.1 0 0.1 0 0.1-0.1 0-0.1 0.1 0 0-0.1 0 0 0.1-0.1 0.1 0 0 0 0-0.1 0-0.1 0h-2.1v6.2q0 0.1 0 0.1-0.1 0.1-0.1 0.1 0 0.1 0 0.1-0.1 0-0.1 0.1-0.1 0-0.2 0.1 0 0-0.2 0-0.1 0-0.1 0-0.1-0.1-0.2-0.1 0-0.1-0.1-0.1 0 0 0-0.1 0 0-0.1-0.1 0 0 0-0.1v-6.2h-2.1q0 0-0.1 0 0 0-0.1 0 0 0 0-0.1-0.1 0-0.1 0-0.1-0.1-0.1-0.1 0 0 0-0.1 0 0 0-0.1-0.1 0 0 0-0.1-0.1 0-0.2 0-0.1 0.1-0.2 0-0.1 0.1-0.1 0.1 0 0.2 0h5.2q0.1 0 0.1 0 0.1 0 0.1 0 0.1 0 0.1 0 0.1 0.1 0.1 0.1z"/>
	<path class="s0" d="m69.1 51.9q0-0.1 0-0.1-0.1 0-0.1-0.1 0 0 0-0.1 0 0 0-0.1v-6.6q0-0.1 0-0.1 0-0.1 0-0.1 0-0.1 0.1-0.1 0 0 0-0.1 0.1 0 0.1 0 0-0.1 0.1-0.1 0 0 0.1 0 0 0 0.1 0h4.4q0.1 0 0.1 0 0.1 0 0.1 0 0.1 0 0.1 0.1 0 0 0.1 0 0 0 0 0.1 0.1 0 0.1 0.1 0 0 0 0.1 0 0 0 0.1 0 0 0 0.1 0 0 0 0 0 0.1-0.1 0.1 0 0.1 0 0.1-0.1 0-0.1 0 0 0.1-0.1 0.1 0 0-0.1 0 0 0-0.1 0h-3.9v2.4h2.8q0.1 0 0.1 0 0.1 0 0.1 0 0.1 0 0.1 0.1 0 0 0.1 0 0 0.1 0 0.1 0.1 0 0.1 0.1 0 0 0 0.1 0 0 0 0.1 0 0 0 0.1 0 0 0 0 0 0.1-0.1 0.1 0 0.1 0 0.1-0.1 0-0.1 0.1 0 0-0.1 0 0 0-0.1 0 0 0-0.1 0h-2.8v2.5h3.9q0.1 0 0.1 0 0.1 0 0.1 0 0.1 0 0.1 0.1 0 0 0.1 0 0 0 0 0.1 0.1 0 0.1 0.1 0 0 0 0 0 0.1 0 0.1 0 0.1 0 0.1 0 0.1 0 0.1 0 0.1-0.1 0.1 0 0.1 0 0.1-0.1 0-0.1 0 0 0.1-0.1 0.1 0 0-0.1 0 0 0-0.1 0h-4.4q-0.1 0-0.1 0-0.1 0-0.1 0 0 0-0.1-0.1 0 0-0.1 0z"/>
	<path class="s0" d="m78.1 51.6q-0.2-0.1-0.4-0.3-0.2-0.1-0.4-0.3-0.2-0.2-0.3-0.4-0.2-0.2-0.3-0.4-0.2-0.5-0.4-1-0.1-0.5-0.1-1 0-0.5 0.1-1.1 0.2-0.5 0.4-0.9 0.1-0.2 0.3-0.4 0.1-0.2 0.3-0.4 0.2-0.2 0.4-0.4 0.2-0.1 0.4-0.2 0.2-0.2 0.4-0.3 0.3-0.1 0.5-0.1 0.3-0.1 0.5-0.1 0.3 0 0.5 0 0.3 0 0.6 0 0.4 0.1 0.7 0.2 0.3 0.1 0.6 0.2 0.2 0.2 0.5 0.4 0 0 0 0.1 0.1 0 0.1 0 0 0 0 0 0 0.1 0 0.1 0 0 0 0.1 0.1 0 0.1 0 0 0-0.1 0.1 0 0 0 0 0 0.1 0 0.1 0 0.1 0 0.1 0 0 0 0.1-0.1 0-0.1 0 0 0.1-0.1 0.1 0 0-0.1 0 0 0.1 0 0.1-0.1 0-0.1 0-0.1 0-0.1 0-0.1 0-0.1-0.1-0.1 0-0.1 0 0 0-0.1-0.1-0.1 0-0.2-0.1-0.1-0.1-0.2-0.1 0-0.1-0.2-0.1-0.1-0.1-0.2-0.1-0.1-0.1-0.2-0.1-0.1-0.1-0.3-0.1-0.1 0-0.2 0-0.1 0-0.3 0-0.1 0-0.3 0-0.2 0-0.4 0.1-0.2 0-0.3 0.1-0.2 0.1-0.4 0.2-0.1 0.1-0.3 0.2-0.1 0.1-0.2 0.3-0.2 0.1-0.3 0.3-0.1 0.1-0.2 0.3-0.2 0.3-0.3 0.7 0 0.4 0 0.8 0 0.4 0 0.8 0.1 0.3 0.3 0.7 0.1 0.2 0.2 0.3 0.1 0.2 0.3 0.3 0.1 0.1 0.2 0.3 0.2 0.1 0.3 0.2 0.2 0.1 0.4 0.2 0.1 0 0.3 0.1 0.2 0 0.4 0.1 0.2 0 0.3 0 0.3 0 0.5-0.1 0.3 0 0.5-0.1 0.2-0.1 0.4-0.2 0.3-0.1 0.4-0.3 0.1 0 0.1 0 0.1 0 0.1 0 0-0.1 0.1-0.1 0 0 0.1 0 0 0 0 0 0.1 0 0.1 0 0.1 0.1 0.1 0.1 0 0 0.1 0.1 0 0 0 0 0 0.1 0.1 0.1 0 0.1 0 0.1 0 0.1 0 0.1 0 0.1 0 0.1 0 0-0.1 0.1 0 0 0 0.1 0 0-0.1 0.1-0.2 0.2-0.5 0.3-0.3 0.2-0.6 0.3-0.3 0.1-0.6 0.2-0.3 0-0.7 0-0.2 0-0.4 0-0.3-0.1-0.5-0.1-0.3-0.1-0.5-0.2-0.2-0.1-0.4-0.2z"/>
	<path class="s0" d="m85.1 51.9q-0.1-0.1-0.1-0.1 0 0-0.1-0.1 0 0 0-0.1 0 0 0-0.1v-6.6q0-0.1 0-0.1 0-0.1 0-0.1 0.1-0.1 0.1-0.1 0 0 0.1-0.1 0 0 0 0 0.1-0.1 0.1-0.1 0.1 0 0.1 0 0.1 0 0.1 0 0 0 0.1 0 0 0 0 0 0 0 0.1 0 0 0 0 0 0.1 0 0.1 0 0 0 0 0 0 0.1 0.1 0.1 0 0 0 0l4.3 5.7v-5.3q0-0.1 0-0.1 0-0.1 0-0.1 0-0.1 0.1-0.1 0 0 0-0.1 0.1 0 0.1 0 0-0.1 0.1-0.1 0 0 0.1 0 0 0 0.1 0 0 0 0.1 0 0 0 0.1 0 0 0 0.1 0.1 0 0 0 0 0.1 0.1 0.1 0.1 0 0 0.1 0.1 0 0 0 0.1 0 0 0 0.1v6.6q0 0.1 0 0.1 0 0.1-0.1 0.1 0 0.1 0 0.1 0 0-0.1 0.1 0 0 0 0-0.1 0.1-0.1 0.1-0.1 0-0.1 0-0.1 0-0.1 0 0 0-0.1 0 0 0 0 0-0.1 0-0.1 0 0 0 0 0-0.1 0-0.1 0 0 0 0 0-0.1 0-0.1-0.1 0 0 0 0l-4.3-5.7v5.3q0 0.1 0 0.2 0 0 0 0 0 0.1-0.1 0.1 0 0.1 0 0.1-0.1 0.1-0.1 0.1 0 0-0.1 0 0 0-0.1 0.1 0 0-0.1 0 0 0-0.1-0.1 0 0-0.1 0 0 0-0.1 0 0-0.1 0-0.1z"/>
	<path fill-rule="evenodd" class="s0" d="m95.3 51.6q-0.2-0.1-0.4-0.3-0.2-0.1-0.4-0.3-0.2-0.2-0.3-0.4-0.2-0.2-0.3-0.4-0.1-0.2-0.2-0.4-0.1-0.3-0.2-0.5 0-0.3-0.1-0.6 0-0.2 0-0.5 0-0.2 0-0.5 0.1-0.2 0.1-0.5 0.1-0.3 0.2-0.5 0.1-0.2 0.2-0.5 0.1-0.2 0.3-0.4 0.1-0.2 0.3-0.4 0.2-0.1 0.4-0.3 0.2-0.1 0.4-0.3 0.5-0.2 1-0.3 0.5-0.2 1-0.2 0.5 0 1 0.2 0.5 0.1 1 0.3 0.2 0.2 0.4 0.3 0.2 0.2 0.4 0.3 0.2 0.2 0.3 0.4 0.2 0.2 0.3 0.4 0.1 0.3 0.2 0.5 0.1 0.2 0.1 0.5 0.1 0.3 0.1 0.5 0.1 0.3 0.1 0.5 0 0.3-0.1 0.5 0 0.3-0.1 0.6 0 0.2-0.1 0.5-0.1 0.2-0.2 0.4-0.1 0.2-0.3 0.4-0.1 0.2-0.3 0.4-0.2 0.2-0.4 0.3-0.2 0.2-0.4 0.3-0.5 0.3-1 0.4-0.5 0.1-1 0.1-0.5 0-1-0.1-0.5-0.1-1-0.4zm3.5-0.8q0.2-0.1 0.3-0.2 0.2-0.1 0.3-0.3 0.1-0.1 0.2-0.3 0.1-0.1 0.2-0.3 0.1-0.2 0.2-0.3 0-0.2 0.1-0.4 0-0.2 0.1-0.4 0-0.2 0-0.4 0-0.2 0-0.4-0.1-0.2-0.1-0.4-0.1-0.2-0.1-0.4-0.1-0.2-0.2-0.3-0.1-0.2-0.2-0.3-0.1-0.2-0.2-0.3-0.1-0.2-0.3-0.3-0.1-0.1-0.3-0.2-0.3-0.2-0.7-0.3-0.4-0.1-0.8-0.1-0.4 0-0.8 0.1-0.3 0.1-0.7 0.3-0.1 0.1-0.3 0.2-0.1 0.1-0.3 0.3-0.1 0.1-0.2 0.3-0.1 0.1-0.2 0.3-0.1 0.1-0.2 0.3 0 0.2-0.1 0.4 0 0.2 0 0.4-0.1 0.2-0.1 0.4 0 0.2 0.1 0.4 0 0.2 0 0.4 0.1 0.2 0.1 0.4 0.1 0.1 0.2 0.3 0.1 0.2 0.2 0.3 0.1 0.2 0.2 0.3 0.2 0.2 0.3 0.3 0.2 0.1 0.3 0.2 0.4 0.2 0.7 0.3 0.4 0.1 0.8 0.1 0.4 0 0.8-0.1 0.4-0.1 0.7-0.3z"/>
	<path class="s0" d="m103.7 51.9q-0.1-0.1-0.1-0.1 0 0 0-0.1-0.1 0-0.1-0.1 0 0 0-0.1v-6.6q0-0.1 0-0.1 0-0.1 0.1-0.1 0-0.1 0-0.1 0 0 0.1-0.1 0 0 0.1-0.1 0.1 0 0.2 0 0.1 0 0.2 0 0.1 0.1 0.2 0.1 0 0.1 0.1 0.1 0 0 0 0.1 0 0 0 0.1 0 0 0 0.1v6.1h3.6q0.1 0 0.2 0 0.1 0.1 0.1 0.1 0.1 0.1 0.2 0.2 0 0.1 0 0.2 0 0.1 0 0.1 0 0.1 0 0.1-0.1 0.1-0.1 0.1 0 0-0.1 0.1 0 0 0 0-0.1 0.1-0.1 0.1-0.1 0-0.1 0-0.1 0-0.1 0h-4q-0.1 0-0.1 0-0.1 0-0.1 0-0.1 0-0.1-0.1-0.1 0-0.1 0z"/>
	<path fill-rule="evenodd" class="s0" d="m111.4 51.6q-0.2-0.1-0.4-0.3-0.2-0.1-0.4-0.3-0.2-0.2-0.3-0.4-0.2-0.2-0.3-0.4-0.1-0.2-0.2-0.4-0.1-0.3-0.2-0.5 0-0.3-0.1-0.6 0-0.2 0-0.5 0-0.2 0-0.5 0.1-0.2 0.1-0.5 0.1-0.3 0.2-0.5 0.1-0.2 0.2-0.5 0.1-0.2 0.3-0.4 0.1-0.2 0.3-0.4 0.2-0.1 0.4-0.3 0.2-0.1 0.4-0.3 0.2-0.1 0.4-0.2 0.3-0.1 0.5-0.1 0.3-0.1 0.5-0.1 0.3-0.1 0.6-0.1 0.2 0 0.5 0.1 0.2 0 0.5 0.1 0.3 0 0.5 0.1 0.2 0.1 0.5 0.2 0.2 0.2 0.4 0.3 0.2 0.2 0.4 0.3 0.1 0.2 0.3 0.4 0.1 0.2 0.2 0.4 0.2 0.3 0.3 0.5 0.1 0.2 0.1 0.5 0.1 0.3 0.1 0.5 0 0.3 0 0.5 0 0.3 0 0.5 0 0.3-0.1 0.6 0 0.2-0.1 0.5-0.1 0.2-0.3 0.4-0.1 0.2-0.2 0.4-0.2 0.2-0.3 0.4-0.2 0.2-0.4 0.3-0.2 0.2-0.4 0.3-0.3 0.1-0.5 0.2-0.2 0.1-0.5 0.2-0.2 0.1-0.5 0.1-0.3 0-0.5 0-0.3 0-0.6 0-0.2 0-0.5-0.1-0.2-0.1-0.5-0.2-0.2-0.1-0.4-0.2zm3.5-0.8q0.1-0.1 0.3-0.2 0.1-0.1 0.3-0.3 0.1-0.1 0.2-0.3 0.1-0.1 0.2-0.3 0.1-0.2 0.2-0.3 0-0.2 0.1-0.4 0-0.2 0-0.4 0.1-0.2 0.1-0.4 0-0.2-0.1-0.4 0-0.2 0-0.4-0.1-0.2-0.1-0.4-0.1-0.2-0.2-0.3-0.1-0.2-0.2-0.3-0.1-0.2-0.2-0.3-0.2-0.2-0.3-0.3-0.2-0.1-0.3-0.2-0.2-0.1-0.4-0.2-0.1-0.1-0.3-0.1-0.2-0.1-0.4-0.1-0.2 0-0.4 0-0.2 0-0.4 0-0.2 0-0.4 0.1-0.2 0-0.4 0.1-0.1 0.1-0.3 0.2-0.2 0.1-0.3 0.2-0.2 0.1-0.3 0.3-0.1 0.1-0.2 0.3-0.1 0.1-0.2 0.3-0.1 0.1-0.2 0.3-0.1 0.2-0.1 0.4 0 0.2-0.1 0.4 0 0.2 0 0.4 0 0.2 0 0.4 0.1 0.2 0.1 0.4 0 0.2 0.1 0.4 0.1 0.1 0.2 0.3 0.1 0.2 0.2 0.3 0.1 0.2 0.2 0.3 0.1 0.2 0.3 0.3 0.1 0.1 0.3 0.2 0.3 0.2 0.7 0.3 0.4 0.1 0.8 0.1 0.4 0 0.8-0.1 0.3-0.1 0.7-0.3zm-1.8-7.4q-0.1 0-0.1-0.1 0 0 0-0.1-0.1 0-0.1-0.1 0 0 0-0.1 0 0 0-0.1 0 0 0.1 0 0-0.1 0-0.1 0-0.1 0-0.1l1-1q0.1 0 0.1-0.1 0.1 0 0.1 0 0.1 0 0.1 0 0-0.1 0.1-0.1 0 0 0.1 0.1 0 0 0.1 0 0 0 0.1 0 0 0.1 0 0.1 0.1 0 0.1 0.1 0 0 0.1 0.1 0 0 0 0.1 0 0 0 0.1 0 0 0 0.1 0 0 0 0-0.1 0.1-0.1 0.1 0 0.1 0 0.1l-1 1q-0.1 0-0.1 0-0.1 0-0.1 0.1 0 0-0.1 0 0 0-0.1 0 0 0-0.1 0 0 0-0.1 0 0 0-0.1-0.1 0 0 0 0z"/>
	<path class="s0" d="m125.3 48.2q0 0 0 0.1 0 0 0.1 0.1 0 0 0 0.1 0 0 0 0.1v2.3q0 0.1 0 0.1 0 0.1 0 0.1-0.1 0.1-0.1 0.1 0 0-0.1 0.1-0.4 0.3-0.9 0.6-0.6 0.2-1.2 0.2-0.5 0.1-1.1-0.1-0.6-0.1-1.1-0.4-0.2-0.1-0.4-0.3-0.2-0.1-0.4-0.3-0.1-0.2-0.3-0.4-0.1-0.2-0.2-0.4-0.3-0.5-0.4-1-0.1-0.5-0.1-1 0-0.5 0.1-1.1 0.1-0.5 0.4-0.9 0.1-0.2 0.2-0.4 0.2-0.2 0.4-0.4 0.1-0.2 0.3-0.4 0.2-0.1 0.4-0.2 0.2-0.2 0.5-0.3 0.2-0.1 0.5-0.1 0.2-0.1 0.4-0.1 0.3-0.1 0.6-0.1 0.1 0 0.3 0 0.1 0.1 0.3 0.1 0.2 0 0.3 0 0.2 0.1 0.3 0.1 0.2 0.1 0.3 0.2 0.2 0 0.3 0.1 0.1 0.1 0.3 0.2 0.1 0.1 0.2 0.2 0.1 0 0.1 0 0 0 0 0.1 0 0 0.1 0 0 0 0 0.1 0 0 0 0 0 0 0 0.1 0 0 0 0 0 0.1 0 0.1 0 0 0 0.1 0 0 0 0.1-0.1 0-0.1 0 0 0.1-0.1 0.1 0 0 0 0.1 0 0-0.1 0 0 0 0 0.1-0.1 0-0.1 0 0 0-0.1 0 0 0-0.1 0 0-0.1-0.1-0.1 0 0 0 0-0.1-0.1-0.2-0.2-0.1 0-0.2-0.1-0.1-0.1-0.2-0.1-0.1-0.1-0.2-0.1-0.1-0.1-0.3-0.1-0.1 0-0.2 0-0.1-0.1-0.3-0.1-0.1 0-0.2 0-0.2 0-0.4 0.1-0.2 0-0.4 0-0.1 0.1-0.3 0.2-0.2 0-0.3 0.1-0.2 0.1-0.3 0.3-0.2 0.1-0.3 0.2-0.1 0.1-0.2 0.3-0.1 0.2-0.2 0.3-0.2 0.4-0.3 0.7-0.1 0.4-0.1 0.8 0 0.4 0.1 0.8 0.1 0.4 0.3 0.7 0.1 0.2 0.2 0.3 0.1 0.2 0.2 0.3 0.1 0.2 0.3 0.3 0.1 0.1 0.3 0.2 0.1 0.1 0.3 0.2 0.2 0.1 0.3 0.1 0.2 0.1 0.4 0.1 0.2 0 0.4 0 0.2 0 0.4 0 0.2-0.1 0.4-0.1 0.2-0.1 0.4-0.2 0.2-0.1 0.3-0.2v-1.7h-1.3q-0.1 0-0.1 0-0.1 0-0.1 0 0 0-0.1-0.1 0 0-0.1 0 0-0.1 0-0.1-0.1 0-0.1-0.1 0 0 0-0.1 0 0 0-0.1 0 0 0 0 0-0.1 0-0.1 0-0.1 0.1-0.1 0 0 0-0.1 0.1 0 0.1 0 0.1-0.1 0.1-0.1 0.1 0 0.1 0 0.1 0 0.1 0h1.8q0.1 0 0.1 0 0.1 0 0.1 0 0 0 0.1 0.1 0 0 0.1 0z"/>
	<path class="s0" d="m127.9 51.9q0-0.1-0.1-0.1 0 0 0-0.1 0 0 0-0.1 0 0 0-0.1v-6.6q0-0.1 0-0.1 0-0.1 0-0.1 0-0.1 0-0.1 0.1 0 0.1-0.1 0 0 0.1 0 0-0.1 0.1-0.1 0 0 0.1 0 0 0 0.1 0 0.1 0 0.2 0 0.1 0 0.1 0.1 0.1 0.1 0.1 0.2 0.1 0.1 0.1 0.2v6.6q0 0.1 0 0.2-0.1 0.1-0.2 0.2 0 0.1-0.1 0.1-0.1 0-0.2 0-0.1 0-0.1 0-0.1 0-0.1 0-0.1 0-0.1-0.1-0.1 0-0.1 0z"/>
	<path class="s0" d="m133 51.6q-0.2-0.1-0.4-0.3-0.2-0.1-0.4-0.3-0.1-0.2-0.3-0.4-0.1-0.2-0.3-0.4-0.2-0.5-0.3-1-0.2-0.5-0.2-1 0-0.5 0.2-1.1 0.1-0.5 0.3-0.9 0.2-0.2 0.3-0.4 0.2-0.2 0.3-0.4 0.2-0.2 0.4-0.3 0.2-0.2 0.4-0.3 0.2-0.1 0.4-0.2 0.3-0.1 0.5-0.2 0.3-0.1 0.5-0.1 0.3 0 0.5 0 0.2 0 0.3 0 0.2 0 0.4 0 0.1 0 0.3 0.1 0.2 0 0.3 0.1 0.2 0 0.3 0.1 0.1 0.1 0.3 0.2 0.1 0 0.3 0.1 0.1 0.1 0.2 0.2 0 0 0.1 0.1 0 0 0 0 0 0 0 0 0 0.1 0.1 0.1 0 0 0 0.1 0 0 0 0 0 0 0 0.1 0 0 0 0 0 0.1 0 0.1-0.1 0.1-0.1 0.1 0 0 0 0.1 0 0-0.1 0 0 0.1 0 0.1-0.1 0-0.1 0.1-0.1 0-0.1 0-0.1 0-0.1 0 0 0-0.1 0 0 0-0.1 0 0 0-0.1-0.1 0 0 0 0-0.1-0.1-0.2-0.2-0.1 0-0.2-0.1-0.1-0.1-0.2-0.1-0.1-0.1-0.2-0.1-0.1-0.1-0.3-0.1-0.1 0-0.2 0-0.1-0.1-0.3-0.1-0.1 0-0.2 0-0.2 0-0.4 0.1-0.2 0-0.4 0-0.1 0.1-0.3 0.2-0.2 0-0.3 0.1-0.2 0.1-0.3 0.3-0.2 0.1-0.3 0.2-0.1 0.2-0.2 0.3-0.1 0.2-0.2 0.3-0.2 0.4-0.3 0.7-0.1 0.4-0.1 0.8 0 0.4 0.1 0.8 0.1 0.4 0.3 0.7 0.1 0.2 0.2 0.3 0.1 0.2 0.2 0.3 0.1 0.2 0.3 0.3 0.1 0.1 0.3 0.2 0.1 0.1 0.3 0.2 0.2 0.1 0.3 0.1 0.2 0.1 0.4 0.1 0.2 0 0.4 0 0.2 0 0.5 0 0.2-0.1 0.4-0.2 0.3 0 0.5-0.2 0.2-0.1 0.4-0.2 0-0.1 0.1-0.1 0 0 0 0 0.1 0 0.1 0 0.1 0 0.1 0 0-0.1 0.1 0 0 0 0.1 0 0 0 0 0 0.1 0 0.1 0.1 0 0 0.1 0.1 0 0 0 0 0 0.1 0 0.1 0 0.1 0 0.1 0 0.1 0 0.1 0 0.1 0 0.1 0 0.1-0.1 0.1 0 0.1 0 0.1-0.3 0.2-0.6 0.4-0.2 0.1-0.5 0.2-0.4 0.1-0.7 0.2-0.3 0-0.6 0-0.3 0-0.5 0-0.3 0-0.5-0.1-0.2-0.1-0.5-0.2-0.2-0.1-0.4-0.2z"/>
	<path fill-rule="evenodd" class="s0" d="m141.3 51.6q-0.2-0.1-0.4-0.3-0.2-0.1-0.3-0.3-0.2-0.2-0.3-0.4-0.2-0.2-0.3-0.4-0.1-0.2-0.2-0.4-0.1-0.3-0.2-0.5 0-0.3-0.1-0.6 0-0.2 0-0.5 0-0.2 0-0.5 0.1-0.2 0.1-0.5 0.1-0.3 0.2-0.5 0.1-0.2 0.2-0.5 0.1-0.2 0.3-0.4 0.1-0.2 0.3-0.4 0.2-0.1 0.4-0.3 0.2-0.1 0.4-0.3 0.4-0.2 1-0.3 0.5-0.2 1-0.2 0.5 0 1 0.2 0.5 0.1 1 0.3 0.2 0.2 0.4 0.3 0.2 0.2 0.4 0.3 0.1 0.2 0.3 0.4 0.1 0.2 0.3 0.4 0.1 0.3 0.2 0.5 0.1 0.2 0.1 0.5 0.1 0.3 0.1 0.5 0.1 0.3 0 0.5 0.1 0.3 0 0.5 0 0.3-0.1 0.6 0 0.2-0.1 0.5-0.1 0.2-0.2 0.4-0.2 0.2-0.3 0.4-0.2 0.2-0.3 0.4-0.2 0.2-0.4 0.3-0.2 0.2-0.4 0.3-0.5 0.3-1 0.4-0.5 0.1-1 0.1-0.5 0-1-0.1-0.6-0.1-1-0.4zm3.5-0.8q0.1-0.1 0.3-0.2 0.1-0.1 0.3-0.3 0.1-0.1 0.2-0.3 0.1-0.1 0.2-0.3 0.1-0.2 0.2-0.3 0-0.2 0.1-0.4 0-0.2 0-0.4 0.1-0.2 0.1-0.4 0-0.2-0.1-0.4 0-0.2 0-0.4-0.1-0.2-0.1-0.4-0.1-0.2-0.2-0.3-0.1-0.2-0.2-0.3-0.1-0.2-0.2-0.3-0.2-0.2-0.3-0.3-0.2-0.1-0.3-0.2-0.2-0.1-0.4-0.2-0.1-0.1-0.3-0.1-0.2-0.1-0.4-0.1-0.2 0-0.4 0-0.2 0-0.4 0-0.2 0-0.4 0.1-0.2 0-0.4 0.1-0.1 0.1-0.3 0.2-0.2 0.1-0.3 0.2-0.2 0.1-0.3 0.3-0.1 0.1-0.2 0.3-0.1 0.1-0.2 0.3-0.1 0.1-0.2 0.3-0.1 0.2-0.1 0.4 0 0.2-0.1 0.4 0 0.2 0 0.4 0 0.2 0 0.4 0.1 0.2 0.1 0.4 0 0.2 0.1 0.4 0.1 0.1 0.2 0.3 0.1 0.2 0.2 0.3 0.1 0.2 0.2 0.3 0.1 0.2 0.3 0.3 0.1 0.1 0.3 0.2 0.3 0.2 0.7 0.3 0.4 0.1 0.8 0.1 0.4 0 0.8-0.1 0.3-0.1 0.7-0.3z"/>
	<path class="s0" d="m67 55.4q0 0 0.1 0.1 0 0 0 0.1 0 0 0 0 0 0.1 0 0.1 0 0.1 0 0.1 0 0.1 0 0.1 0 0.1 0 0.1-0.1 0-0.1 0.1 0 0-0.1 0 0 0.1-0.1 0.1 0 0 0 0-0.1 0-0.1 0h-2.1v6.2q0 0.1 0 0.1-0.1 0.1-0.1 0.1 0 0 0 0.1-0.1 0-0.1 0.1-0.1 0-0.2 0.1 0 0-0.2 0-0.1 0-0.1 0-0.1-0.1-0.2-0.1 0-0.1-0.1-0.1 0-0.1 0-0.1 0 0-0.1-0.1 0 0 0-0.1v-6.2h-2.1q0 0-0.1 0 0 0-0.1 0 0 0 0-0.1-0.1 0-0.1 0-0.1-0.1-0.1-0.1 0 0 0-0.1 0 0 0-0.1-0.1 0-0.1-0.1 0 0 0.1-0.1 0 0 0 0 0-0.1 0-0.1 0-0.1 0.1-0.1 0 0 0.1-0.1 0 0 0 0 0.1 0 0.1 0 0.1 0 0.1 0h5.3q0 0 0 0 0.1 0 0.1 0 0.1 0 0.1 0 0.1 0.1 0.1 0.1z"/>
	<path fill-rule="evenodd" class="s0" d="m70 62.5q-0.2-0.1-0.4-0.3-0.2-0.1-0.4-0.3-0.2-0.2-0.3-0.4-0.2-0.2-0.3-0.4-0.1-0.2-0.2-0.5-0.1-0.2-0.2-0.4 0-0.3 0-0.6-0.1-0.2-0.1-0.5 0-0.2 0.1-0.5 0-0.3 0-0.5 0.1-0.3 0.2-0.5 0.1-0.3 0.2-0.5 0.1-0.2 0.3-0.4 0.1-0.2 0.3-0.4 0.2-0.2 0.4-0.3 0.2-0.2 0.4-0.3 0.5-0.3 1-0.4 0.5-0.1 1-0.1 0.5 0 1 0.1 0.5 0.1 1 0.4 0.2 0.1 0.4 0.2 0.2 0.2 0.4 0.4 0.2 0.1 0.3 0.3 0.2 0.2 0.3 0.5 0.1 0.2 0.2 0.4 0.1 0.3 0.2 0.5 0 0.3 0.1 0.5 0 0.3 0 0.6 0 0.2 0 0.5-0.1 0.2-0.1 0.5-0.1 0.2-0.2 0.5-0.1 0.2-0.2 0.5-0.1 0.2-0.3 0.4-0.1 0.2-0.3 0.3-0.2 0.2-0.4 0.4-0.2 0.1-0.4 0.3-0.5 0.2-1 0.3-0.5 0.1-1 0.1-0.5 0-1-0.1-0.5-0.1-1-0.3zm3.5-0.9q0.2-0.1 0.3-0.2 0.2-0.1 0.3-0.2 0.1-0.2 0.2-0.3 0.1-0.2 0.2-0.3 0.1-0.2 0.2-0.4 0.1-0.2 0.1-0.4 0.1-0.2 0.1-0.4 0-0.2 0-0.4 0-0.2 0-0.4 0-0.2-0.1-0.4 0-0.2-0.1-0.3-0.1-0.2-0.2-0.4-0.1-0.2-0.2-0.3-0.1-0.2-0.2-0.3-0.1-0.1-0.3-0.3-0.1-0.1-0.3-0.2-0.3-0.2-0.7-0.3-0.4-0.1-0.8-0.1-0.4 0-0.7 0.1-0.4 0.1-0.8 0.3-0.1 0.1-0.3 0.2-0.1 0.2-0.2 0.3-0.2 0.1-0.3 0.3-0.1 0.1-0.2 0.3-0.1 0.2-0.1 0.4-0.1 0.1-0.1 0.3-0.1 0.2-0.1 0.4 0 0.2 0 0.4 0 0.2 0 0.4 0 0.2 0.1 0.4 0 0.2 0.1 0.4 0 0.2 0.1 0.4 0.1 0.1 0.2 0.3 0.1 0.1 0.3 0.3 0.1 0.1 0.2 0.2 0.2 0.1 0.3 0.2 0.4 0.2 0.8 0.3 0.3 0.1 0.7 0.1 0.4 0 0.8-0.1 0.4-0.1 0.7-0.3z"/>
	<path class="s0" d="m85.8 55.4q0 0 0 0.1 0 0 0.1 0.1 0 0 0 0.1 0 0 0 0.1v6.6q0 0.1 0 0.1 0 0.1 0 0.1-0.1 0-0.1 0.1 0 0 0 0.1-0.1 0-0.2 0.1-0.1 0-0.2 0-0.1 0-0.2 0-0.1-0.1-0.2-0.1 0-0.1 0-0.1-0.1-0.1-0.1-0.1 0-0.1 0-0.1 0-0.1 0-0.1v-4.9l-2.4 4.9q0 0-0.1 0.1 0 0-0.1 0 0 0.1-0.1 0.1-0.1 0-0.1 0-0.1 0-0.2 0 0 0-0.1-0.1-0.1 0-0.1-0.1-0.1 0-0.1-0.1l-2.3-4.7v4.8q0 0.1 0 0.1 0 0.1-0.1 0.1 0 0 0 0.1 0 0-0.1 0.1 0 0-0.1 0 0 0.1 0 0.1-0.1 0-0.1 0-0.1 0-0.2 0-0.1 0-0.1 0-0.1-0.1-0.2-0.1-0.1-0.1-0.1-0.2-0.1-0.1-0.1-0.2v-6.6q0-0.1 0.1-0.1 0-0.1 0-0.1 0-0.1 0-0.1 0.1-0.1 0.1-0.1 0 0 0.1-0.1 0 0 0.1 0 0 0 0.1 0 0 0 0 0 0.1 0 0.2 0 0.1 0 0.1 0 0.1 0.1 0.1 0.1 0.1 0.1 0.1 0.1l2.9 5.9 2.8-5.9q0.1 0 0.1-0.1 0.1 0 0.1-0.1 0.1 0 0.2 0 0 0 0.1 0 0 0 0.1 0 0 0 0.1 0 0 0 0.1 0 0 0.1 0.1 0.1z"/>
	<path fill-rule="evenodd" class="s0" d="m94.4 62.4q0 0.1 0 0.1-0.1 0.1-0.1 0.1 0 0 0 0.1-0.1 0-0.1 0.1 0 0-0.1 0 0 0.1-0.1 0.1 0 0 0 0-0.1 0-0.1 0-0.1 0-0.1 0-0.1 0-0.1 0 0 0-0.1 0 0-0.1 0-0.1-0.1 0-0.1 0 0 0 0-0.1-0.1 0-0.1 0 0-0.1 0-0.1l-0.6-1.4h-3.5l-0.5 1.4q-0.1 0-0.1 0.1 0 0 0 0 0 0.1-0.1 0.1 0 0 0 0-0.1 0-0.1 0.1 0 0-0.1 0 0 0 0 0-0.1 0-0.1 0-0.1 0-0.1 0-0.1 0-0.1 0-0.1 0-0.1-0.1 0 0-0.1 0 0-0.1 0-0.1-0.1-0.1-0.1-0.1 0-0.1 0-0.1 0-0.1 0-0.1 0 0 0-0.1 0 0 0 0 0 0 0-0.1 0 0 0 0l2.7-6.6q0.1-0.1 0.1-0.1 0.1-0.1 0.1-0.1 0.1-0.1 0.2-0.1 0 0 0.1 0 0.1 0 0.2 0 0.1 0 0.1 0 0.1 0.1 0.1 0.2 0.1 0 0.1 0.1l2.8 6.6q0 0 0 0 0 0.1 0 0.1 0 0 0 0.1 0.1 0 0.1 0zm-1.9-2l-1.4-3.5-1.4 3.5zm-1.8-6.1q0 0-0.1-0.1 0 0 0-0.1 0 0 0-0.1 0 0 0-0.1 0 0 0 0 0-0.1 0-0.1 0-0.1 0-0.1 0.1 0 0.1-0.1l1-1q0 0 0.1 0 0-0.1 0-0.1 0.1 0 0.1 0 0.1 0 0.1 0 0.1 0 0.1 0 0.1 0 0.1 0 0.1 0 0.1 0.1 0.1 0 0.1 0 0 0.1 0.1 0.1 0 0 0 0.1 0 0 0 0.1 0 0 0 0.1 0 0 0 0.1 0 0 0 0.1 0 0 0 0.1-0.1 0-0.1 0l-1 1q-0.1 0-0.2 0.1 0 0-0.1 0-0.1 0-0.2 0-0.1-0.1-0.2-0.1z"/>
	<path class="s0" d="m96.9 62.6q-0.2-0.1-0.3-0.2-0.2-0.1-0.3-0.3-0.2-0.1-0.3-0.3-0.1-0.2-0.2-0.4 0 0 0 0 0 0 0 0 0-0.1 0-0.1 0 0 0 0 0-0.1 0-0.1 0 0 0-0.1 0.1 0 0.1 0 0-0.1 0-0.1 0 0 0.1-0.1 0 0 0 0 0.1 0 0.1 0 0-0.1 0.1-0.1h0.1q0 0 0.1 0 0 0.1 0 0.1 0.1 0 0.1 0 0.1 0 0.1 0 0 0.1 0.1 0.1 0 0 0 0 0 0.1 0.1 0.1 0 0 0 0.1 0.1 0.1 0.1 0.2 0.1 0.1 0.2 0.2 0.1 0 0.2 0.1 0.1 0.1 0.2 0.1 0.1 0.1 0.3 0.1 0.1 0.1 0.3 0.1 0.1 0.1 0.2 0.1 0.2 0 0.3 0 0.2 0 0.4 0 0.1 0 0.3-0.1 0.1 0 0.3-0.1 0.2-0.1 0.3-0.1 0.1-0.1 0.2-0.2 0.1-0.1 0.2-0.2 0-0.2 0.1-0.3 0-0.1 0-0.3 0-0.1 0-0.3-0.1-0.1-0.1-0.2-0.1-0.1-0.1-0.3-0.1-0.1-0.2-0.2-0.2-0.1-0.3-0.2-0.2-0.1-0.4-0.1-0.1-0.1-0.3-0.1-0.2 0-0.4 0-0.2-0.1-0.5-0.1-0.2-0.1-0.5-0.2-0.2-0.1-0.4-0.2-0.3-0.1-0.5-0.3-0.1-0.1-0.3-0.3-0.1-0.1-0.2-0.3-0.1-0.2-0.1-0.4-0.1-0.2-0.1-0.4 0-0.2 0.1-0.3 0-0.2 0-0.3 0.1-0.2 0.1-0.3 0.1-0.1 0.2-0.2 0.1-0.1 0.2-0.3 0.1-0.1 0.3-0.1 0.1-0.1 0.2-0.2 0.2-0.1 0.3-0.1 0.2-0.1 0.3-0.1 0.2-0.1 0.4-0.1 0.2 0 0.3-0.1 0.2 0 0.4 0 0.2 0 0.4 0.1 0.2 0 0.3 0 0.2 0.1 0.4 0.1 0.2 0.1 0.3 0.2 0.2 0.1 0.3 0.2 0.2 0.1 0.3 0.2 0.1 0.1 0.2 0.3 0.1 0.1 0.2 0.3 0 0 0.1 0.1 0 0 0 0 0 0.1 0 0.1 0 0.1 0 0.1 0 0.1 0 0.1 0 0.1 0 0.1 0 0.1-0.1 0.1 0 0.1-0.1 0.1 0 0 0 0-0.1 0-0.1 0 0 0-0.1 0 0 0.1 0 0.1-0.1 0-0.2-0.1 0 0-0.1 0-0.1-0.1-0.1-0.1 0-0.1-0.1-0.1 0-0.1-0.1-0.2-0.1-0.1-0.2-0.2-0.1-0.1-0.2-0.2 0 0-0.1-0.1-0.2-0.1-0.3-0.1-0.1 0-0.2-0.1-0.2 0-0.3 0-0.1 0-0.3 0-0.1 0-0.3 0-0.1 0-0.3 0-0.1 0.1-0.3 0.1-0.1 0.1-0.2 0.2-0.2 0-0.2 0.1-0.1 0.1-0.2 0.2-0.1 0.1-0.1 0.3 0 0.1 0 0.2 0 0.1 0 0.2 0 0.2 0.1 0.3 0 0.1 0.1 0.2 0.1 0.1 0.2 0.2 0.2 0.1 0.3 0.1 0.2 0.1 0.4 0.2 0.2 0 0.4 0.1 0.2 0 0.4 0 0.2 0 0.5 0.1 0.2 0 0.4 0.1 0.3 0.1 0.5 0.2 0.2 0.2 0.4 0.3 0.2 0.2 0.3 0.3 0.1 0.2 0.2 0.4 0.1 0.2 0.1 0.4 0 0.3 0 0.5 0 0.1 0 0.3 0 0.2-0.1 0.3 0 0.2-0.1 0.3-0.1 0.2-0.2 0.3-0.1 0.1-0.2 0.2-0.1 0.1-0.2 0.2-0.2 0.1-0.3 0.2-0.2 0.1-0.3 0.1-0.2 0.1-0.3 0.2-0.2 0-0.4 0-0.1 0.1-0.3 0.1-0.2 0-0.4 0-0.2 0-0.4 0-0.2 0-0.5-0.1-0.2-0.1-0.4-0.1-0.2-0.1-0.4-0.2z"/>
</svg>