<svg xmlns="http://www.w3.org/2000/svg" width="147.23" height="63.01" viewBox="0 0 147.23 63.01"><title>logo</title><path d="M54.06,43.42H29.75a1.1,1.1,0,0,0,0,2.19H54.06" style="fill:#fff"/><path d="M54.06,35.66H23.21a1.1,1.1,0,1,0,0,2.19H54.06" style="fill:#fff"/><path d="M54.06,51.19H33.16a1.1,1.1,0,1,0,0,2.19h20.9" style="fill:#fff"/><path d="M54.06,59H34.45a1.1,1.1,0,0,0,0,2.19H54.06" style="fill:#fff"/><path d="M9.16,53.38A9.55,9.55,0,0,1,12,60,1.1,1.1,0,0,1,11,61.15h0a1.1,1.1,0,0,1-1.1-1.07,7.46,7.46,0,0,0-7.42-7.25H2.2a1.1,1.1,0,0,1-1.14-1.06,1.11,1.11,0,0,1,1.07-1.13h.3a9.57,9.57,0,0,1,6.73,2.74Z" style="fill:#fff"/><path d="M2.68,43H2.13a1.1,1.1,0,1,0,.07,2.19h.48a15.28,15.28,0,0,1,15.2,14.86A1.11,1.11,0,0,0,19,61.15h0A1.09,1.09,0,0,0,20.07,60a17.29,17.29,0,0,0-5.22-12A17.31,17.31,0,0,0,2.68,43Z" style="fill:#fff"/><path d="M2.92,35.65h-.8a1.1,1.1,0,1,0,.08,2.19h.72A22.89,22.89,0,0,1,25.68,60.08a1.1,1.1,0,0,0,1.1,1.07h0A1.09,1.09,0,0,0,27.87,60a24.81,24.81,0,0,0-7.49-17.26A24.86,24.86,0,0,0,2.92,35.65Z" style="fill:#fff"/><path d="M54.06,43.42H29.75a1.1,1.1,0,0,0,0,2.19H54.06" style="fill:#fff"/><path d="M54.06,35.66H23.21a1.1,1.1,0,1,0,0,2.19H54.06" style="fill:#fff"/><path d="M54.06,51.19H33.16a1.1,1.1,0,1,0,0,2.19h20.9" style="fill:#fff"/><path d="M54.06,59H34.45a1.1,1.1,0,0,0,0,2.19H54.06" style="fill:#fff"/><path d="M5.58,28.66a10.6,10.6,0,0,1-4.1-4.14A11.78,11.78,0,0,1,0,18.64a12.37,12.37,0,0,1,1.43-6,10.35,10.35,0,0,1,4-4.12,11.45,11.45,0,0,1,5.82-1.48,10.36,10.36,0,0,1,8.16,3.75,1.56,1.56,0,0,1,.41,1.08,1.83,1.83,0,0,1-.91,1.54,1.67,1.67,0,0,1-1,.29A2.08,2.08,0,0,1,16.35,13a6.47,6.47,0,0,0-2.27-1.64,7.08,7.08,0,0,0-2.81-.52A6.78,6.78,0,0,0,6.07,13a8,8,0,0,0-2,5.68,8.5,8.5,0,0,0,.93,4,7,7,0,0,0,2.62,2.77,7.49,7.49,0,0,0,3.85,1A6.93,6.93,0,0,0,16.06,25a2.58,2.58,0,0,1,1.54-.58,1.74,1.74,0,0,1,1.08.37,2,2,0,0,1,.79,1.5,1.55,1.55,0,0,1-.5,1.12,10.56,10.56,0,0,1-7.49,2.79A11.63,11.63,0,0,1,5.58,28.66Z" style="fill:#fff"/><path d="M37.13,26.42a2.12,2.12,0,0,1,.52,1.49,1.86,1.86,0,0,1-.69,1.5,2.64,2.64,0,0,1-1.77.59h-.74a6.84,6.84,0,0,1-3.73-1.07A7.37,7.37,0,0,1,28.08,26a8.72,8.72,0,0,1-1-4.12V11.65H25.21a2,2,0,0,1-1.41-.5,1.6,1.6,0,0,1-.55-1.25,1.7,1.7,0,0,1,.55-1.33,2,2,0,0,1,1.41-.5h1.91v-6a2,2,0,0,1,.59-1.5A2,2,0,0,1,29.2,0a2,2,0,0,1,1.5.58,2,2,0,0,1,.58,1.5v6h3.54a2,2,0,0,1,1.41.5,1.73,1.73,0,0,1,.55,1.33,1.64,1.64,0,0,1-.55,1.25,2,2,0,0,1-1.41.5H31.28V21.92a4.28,4.28,0,0,0,.92,2.79,2.79,2.79,0,0,0,2.25,1.12h1.41A1.65,1.65,0,0,1,37.13,26.42Z" style="fill:#fff"/><path d="M53.81,26.42a2.12,2.12,0,0,1,.52,1.49,1.86,1.86,0,0,1-.69,1.5,2.6,2.6,0,0,1-1.76.59h-.75a6.87,6.87,0,0,1-3.73-1.07A7.37,7.37,0,0,1,44.76,26a8.72,8.72,0,0,1-1-4.12V11.65H41.89a2,2,0,0,1-1.41-.5,1.63,1.63,0,0,1-.54-1.25,1.73,1.73,0,0,1,.54-1.33,2,2,0,0,1,1.41-.5H43.8v-6a2,2,0,0,1,.59-1.5A2,2,0,0,1,45.88,0a2,2,0,0,1,1.5.58A2,2,0,0,1,48,2.08v6H51.5a2.05,2.05,0,0,1,1.42.5,1.73,1.73,0,0,1,.54,1.33,1.63,1.63,0,0,1-.54,1.25,2.05,2.05,0,0,1-1.42.5H48V21.92a4.28,4.28,0,0,0,.92,2.79,2.79,2.79,0,0,0,2.25,1.12h1.41A1.65,1.65,0,0,1,53.81,26.42Z" style="fill:#fff"/><path d="M54.06,43.42H29.75a1.1,1.1,0,0,0,0,2.19H54.06" style="fill:#fff"/><path d="M54.06,35.66H23.21a1.1,1.1,0,1,0,0,2.19H54.06" style="fill:#fff"/><path d="M54.06,51.19H33.16a1.1,1.1,0,1,0,0,2.19h20.9" style="fill:#fff"/><path d="M54.06,59H34.45a1.1,1.1,0,0,0,0,2.19H54.06" style="fill:#fff"/><path d="M63.29,40.71a3.74,3.74,0,0,1-1.37-1.42,4.17,4.17,0,0,1,0-4,3.89,3.89,0,0,1,1.37-1.42,3.64,3.64,0,0,1,1.92-.52,4.06,4.06,0,0,1,1.28.19,4.12,4.12,0,0,1,1.1.65.52.52,0,0,1,.16.18.51.51,0,0,1,0,.22.45.45,0,0,1-.14.33.52.52,0,0,1-.33.12A.54.54,0,0,1,67,35a2.8,2.8,0,0,0-.79-.5,2.69,2.69,0,0,0-1-.15,2.6,2.6,0,0,0-1.41.4,2.89,2.89,0,0,0-1,1.09,3.25,3.25,0,0,0,0,3,2.89,2.89,0,0,0,1,1.09,2.6,2.6,0,0,0,1.41.4,3,3,0,0,0,1.8-.64.53.53,0,0,1,.32-.12.4.4,0,0,1,.31.13.5.5,0,0,1,.12.35.48.48,0,0,1-.16.36,3.68,3.68,0,0,1-2.39.85A3.64,3.64,0,0,1,63.29,40.71Z" style="fill:#fff"/><path d="M75.89,40.63a.49.49,0,0,1-.15.36.53.53,0,0,1-.64.06.43.43,0,0,1-.19-.23l-.55-1.37H70.84l-.55,1.37a.57.57,0,0,1-.2.23.45.45,0,0,1-.27.08.46.46,0,0,1-.36-.15.48.48,0,0,1-.14-.36.74.74,0,0,1,.05-.22l2.75-6.57a.49.49,0,0,1,.48-.34.48.48,0,0,1,.48.34l2.76,6.59A.69.69,0,0,1,75.89,40.63Zm-1.87-2-1.4-3.49-1.43,3.49Z" style="fill:#fff"/><path d="M85.25,33.63a.49.49,0,0,1,.14.37v6.62a.5.5,0,0,1-.15.37.47.47,0,0,1-.35.14.48.48,0,0,1-.51-.51V35.76L82,40.59a.5.5,0,0,1-.44.25.48.48,0,0,1-.47-.3l-2.35-4.69v4.77a.49.49,0,0,1-.14.37.48.48,0,0,1-.36.14.49.49,0,0,1-.37-.14.53.53,0,0,1-.14-.37V34a.48.48,0,0,1,.51-.51.51.51,0,0,1,.45.27l2.9,5.83,2.83-5.83a.51.51,0,0,1,.46-.27A.52.52,0,0,1,85.25,33.63Z" style="fill:#fff"/><path d="M88.23,41a.53.53,0,0,1-.14-.37V34a.51.51,0,0,1,.14-.37.49.49,0,0,1,.37-.14h2a2.53,2.53,0,0,1,1.3.32,2.33,2.33,0,0,1,.89.9A2.7,2.7,0,0,1,93.06,36a2.59,2.59,0,0,1-.32,1.28,2.26,2.26,0,0,1-.89.87,2.63,2.63,0,0,1-1.3.31H89.11v2.14A.5.5,0,0,1,89,41a.45.45,0,0,1-.36.14A.49.49,0,0,1,88.23,41Zm2.32-3.45a1.48,1.48,0,0,0,1.1-.43A1.44,1.44,0,0,0,92.08,36a1.57,1.57,0,0,0-.43-1.14,1.45,1.45,0,0,0-1.1-.45H89.11v3.11Z" style="fill:#fff"/><path d="M96.43,40.73a3.46,3.46,0,0,1-1.37-1.39,4.16,4.16,0,0,1-.49-2,4.08,4.08,0,0,1,.49-2,3.4,3.4,0,0,1,1.37-1.39,4.1,4.1,0,0,1,2-.5,4,4,0,0,1,2,.5,3.48,3.48,0,0,1,1.38,1.39,4.08,4.08,0,0,1,.49,2,4.16,4.16,0,0,1-.49,2,3.55,3.55,0,0,1-1.38,1.39,3.92,3.92,0,0,1-2,.5A4,4,0,0,1,96.43,40.73Zm3.52-.81a2.79,2.79,0,0,0,1-1.09,3.33,3.33,0,0,0,0-3,2.75,2.75,0,0,0-1-1.08,3.1,3.1,0,0,0-3,0,2.75,2.75,0,0,0-1,1.08,3.33,3.33,0,0,0,0,3,2.79,2.79,0,0,0,1,1.09,3.06,3.06,0,0,0,3,0Z" style="fill:#fff"/><path d="M67,44.51a.45.45,0,0,1,.13.34.43.43,0,0,1-.13.33.46.46,0,0,1-.34.14h-2.1v6.19a.5.5,0,0,1-.15.37.53.53,0,0,1-.72,0,.5.5,0,0,1-.15-.37V45.32H61.42a.46.46,0,0,1-.34-.14.43.43,0,0,1-.13-.33.45.45,0,0,1,.47-.47h5.23A.45.45,0,0,1,67,44.51Z" style="fill:#fff"/><path d="M69.13,51.88a.5.5,0,0,1-.15-.37V44.88a.46.46,0,0,1,.15-.36.48.48,0,0,1,.36-.14h4.43a.48.48,0,0,1,.36.13.47.47,0,0,1,.14.35.45.45,0,0,1-.14.33.53.53,0,0,1-.36.13H70v2.37h2.81a.49.49,0,0,1,.36.14.46.46,0,0,1,.14.34.44.44,0,0,1-.14.33.49.49,0,0,1-.36.14H70v2.44h3.92a.48.48,0,0,1,.36.13.44.44,0,0,1,.14.33.47.47,0,0,1-.14.35.48.48,0,0,1-.36.13H69.49A.52.52,0,0,1,69.13,51.88Z" style="fill:#fff"/><path d="M78.09,51.6a3.67,3.67,0,0,1-1.37-1.42,4.17,4.17,0,0,1,0-4,3.74,3.74,0,0,1,1.37-1.42A3.58,3.58,0,0,1,80,44.28a3.35,3.35,0,0,1,2.39.84.4.4,0,0,1,.15.18.51.51,0,0,1,0,.22.39.39,0,0,1-.15.32.44.44,0,0,1-.33.13.52.52,0,0,1-.34-.13,3.11,3.11,0,0,0-.78-.49,2.79,2.79,0,0,0-1-.15,2.6,2.6,0,0,0-1.41.4,3,3,0,0,0-1,1.09,3.17,3.17,0,0,0,0,3,3,3,0,0,0,1,1.09,2.6,2.6,0,0,0,1.41.4,2.89,2.89,0,0,0,1.8-.65.62.62,0,0,1,.32-.11.39.39,0,0,1,.31.13.5.5,0,0,1,.12.35.53.53,0,0,1-.15.36,3.73,3.73,0,0,1-2.4.85A3.58,3.58,0,0,1,78.09,51.6Z" style="fill:#fff"/><path d="M85.06,51.88a.48.48,0,0,1-.15-.37V44.88a.46.46,0,0,1,.15-.36.45.45,0,0,1,.35-.14.42.42,0,0,1,.22,0,.83.83,0,0,1,.18.13l4.26,5.68V44.88a.46.46,0,0,1,.15-.36.49.49,0,0,1,.37-.14.45.45,0,0,1,.35.14.45.45,0,0,1,.14.36v6.63a.48.48,0,0,1-.14.37.48.48,0,0,1-.35.14.62.62,0,0,1-.23,0,.37.37,0,0,1-.17-.13l-4.27-5.68v5.34a.49.49,0,0,1-.14.37.51.51,0,0,1-.37.14A.48.48,0,0,1,85.06,51.88Z" style="fill:#fff"/><path d="M95.29,51.62a3.55,3.55,0,0,1-1.38-1.39,4.27,4.27,0,0,1-.49-2,4.19,4.19,0,0,1,.49-2,3.48,3.48,0,0,1,1.38-1.39,4.31,4.31,0,0,1,4,0,3.48,3.48,0,0,1,1.38,1.39,4.09,4.09,0,0,1,.5,2,4.16,4.16,0,0,1-.5,2,3.59,3.59,0,0,1-1.37,1.39,4.33,4.33,0,0,1-4,0Zm3.52-.82a2.68,2.68,0,0,0,1-1.08,3.13,3.13,0,0,0,.38-1.53,3.09,3.09,0,0,0-.38-1.52,2.68,2.68,0,0,0-1-1.08,3.08,3.08,0,0,0-3,0,2.77,2.77,0,0,0-1,1.08,3.19,3.19,0,0,0-.37,1.52,3.23,3.23,0,0,0,.37,1.53,2.77,2.77,0,0,0,1,1.08,3,3,0,0,0,3,0Z" style="fill:#fff"/><path d="M103.67,51.88a.49.49,0,0,1-.14-.37V44.88a.52.52,0,0,1,.14-.36.53.53,0,0,1,.72,0,.49.49,0,0,1,.15.36V51h3.54a.51.51,0,0,1,.51.51.5.5,0,0,1-.15.37.52.52,0,0,1-.36.14h-4A.49.49,0,0,1,103.67,51.88Z" style="fill:#fff"/><path d="M111.37,51.62A3.52,3.52,0,0,1,110,50.23a4.16,4.16,0,0,1-.49-2,4.08,4.08,0,0,1,.49-2,3.46,3.46,0,0,1,1.37-1.39,4,4,0,0,1,2-.5,4,4,0,0,1,2,.5,3.48,3.48,0,0,1,1.38,1.39,4.08,4.08,0,0,1,.49,2,4.16,4.16,0,0,1-.49,2,3.55,3.55,0,0,1-1.38,1.39,3.92,3.92,0,0,1-2,.5A4,4,0,0,1,111.37,51.62Zm3.52-.82a2.7,2.7,0,0,0,1-1.08,3.12,3.12,0,0,0,.37-1.53,3.08,3.08,0,0,0-.37-1.52,2.75,2.75,0,0,0-1-1.08,2.89,2.89,0,0,0-1.5-.39,2.93,2.93,0,0,0-1.51.39,2.75,2.75,0,0,0-1,1.08,3.08,3.08,0,0,0-.37,1.52,3.12,3.12,0,0,0,.37,1.53,2.7,2.7,0,0,0,1,1.08,3,3,0,0,0,3,0Zm-1.82-7.41a.48.48,0,0,1-.13-.36.47.47,0,0,1,.11-.33l1-1a.49.49,0,0,1,.36-.15.45.45,0,0,1,.35.15.48.48,0,0,1,.14.36.46.46,0,0,1-.13.35l-1,.95a.47.47,0,0,1-.34.13A.48.48,0,0,1,113.07,43.39Z" style="fill:#fff"/><path d="M125.26,48.2a.51.51,0,0,1,.14.37v2.34a.44.44,0,0,1-.16.36,3.79,3.79,0,0,1-4.31.33,3.74,3.74,0,0,1-1.37-1.42,4.25,4.25,0,0,1,0-4,3.81,3.81,0,0,1,1.37-1.42,3.64,3.64,0,0,1,1.92-.52,3.79,3.79,0,0,1,1.28.19,3.74,3.74,0,0,1,1.1.65.52.52,0,0,1,.16.18.51.51,0,0,1,0,.22.42.42,0,0,1-.14.32A.48.48,0,0,1,125,46a.48.48,0,0,1-.33-.13,3,3,0,0,0-.79-.49,2.69,2.69,0,0,0-1-.15,2.6,2.6,0,0,0-1.41.4,2.89,2.89,0,0,0-1,1.09,3.17,3.17,0,0,0,0,3,2.89,2.89,0,0,0,1,1.09,2.6,2.6,0,0,0,1.41.4,2.82,2.82,0,0,0,1.57-.49V49h-1.35a.52.52,0,0,1-.37-.13.42.42,0,0,1-.14-.32.45.45,0,0,1,.14-.33.57.57,0,0,1,.37-.12h1.83A.48.48,0,0,1,125.26,48.2Z" style="fill:#fff"/><path d="M127.91,51.88a.5.5,0,0,1-.15-.37V44.88a.46.46,0,0,1,.15-.36.48.48,0,0,1,.36-.14.48.48,0,0,1,.51.5v6.63a.48.48,0,0,1-.51.51A.52.52,0,0,1,127.91,51.88Z" style="fill:#fff"/><path d="M133,51.6a3.71,3.71,0,0,1-1.36-1.42,4.17,4.17,0,0,1,0-4A3.79,3.79,0,0,1,133,44.8a3.64,3.64,0,0,1,1.92-.52,3.89,3.89,0,0,1,1.29.19,4,4,0,0,1,1.1.65.48.48,0,0,1,.15.18.51.51,0,0,1,0,.22.42.42,0,0,1-.14.32A.44.44,0,0,1,137,46a.5.5,0,0,1-.34-.13,3.11,3.11,0,0,0-.78-.49,2.79,2.79,0,0,0-1-.15,2.6,2.6,0,0,0-1.41.4,3,3,0,0,0-1,1.09,3.25,3.25,0,0,0,0,3,3,3,0,0,0,1,1.09,2.6,2.6,0,0,0,1.41.4,2.93,2.93,0,0,0,1.8-.65.62.62,0,0,1,.32-.11.39.39,0,0,1,.31.13.5.5,0,0,1,.12.35.53.53,0,0,1-.15.36,3.73,3.73,0,0,1-2.4.85A3.64,3.64,0,0,1,133,51.6Z" style="fill:#fff"/><path d="M141.33,51.62A3.42,3.42,0,0,1,140,50.23a4.16,4.16,0,0,1-.49-2,4.08,4.08,0,0,1,.49-2,3.36,3.36,0,0,1,1.38-1.39,4.31,4.31,0,0,1,4,0,3.48,3.48,0,0,1,1.38,1.39,4.08,4.08,0,0,1,.49,2,4.16,4.16,0,0,1-.49,2,3.55,3.55,0,0,1-1.38,1.39,4.31,4.31,0,0,1-4,0Zm3.51-.82a2.7,2.7,0,0,0,1-1.08,3.12,3.12,0,0,0,.37-1.53,3.08,3.08,0,0,0-.37-1.52,2.75,2.75,0,0,0-1-1.08,2.89,2.89,0,0,0-1.5-.39,2.93,2.93,0,0,0-1.51.39,2.75,2.75,0,0,0-1,1.08,3.08,3.08,0,0,0-.37,1.52,3.12,3.12,0,0,0,.37,1.53,2.7,2.7,0,0,0,1,1.08,3,3,0,0,0,3,0Z" style="fill:#fff"/><path d="M67,55.4a.43.43,0,0,1,.13.33.44.44,0,0,1-.13.34.45.45,0,0,1-.34.13h-2.1v6.2a.46.46,0,0,1-.15.36.51.51,0,0,1-.72,0,.46.46,0,0,1-.15-.36V56.2H61.42a.45.45,0,0,1-.34-.13.44.44,0,0,1-.13-.34.43.43,0,0,1,.13-.33.46.46,0,0,1,.34-.14h5.23A.46.46,0,0,1,67,55.4Z" style="fill:#fff"/><path d="M70,62.51a3.55,3.55,0,0,1-1.38-1.39,4.16,4.16,0,0,1-.49-2,4.08,4.08,0,0,1,.49-2A3.48,3.48,0,0,1,70,55.67a4.31,4.31,0,0,1,4,0,3.48,3.48,0,0,1,1.38,1.39,4.09,4.09,0,0,1,.5,2,4.16,4.16,0,0,1-.5,2,3.59,3.59,0,0,1-1.37,1.39,4.33,4.33,0,0,1-4,0Zm3.52-.82a2.77,2.77,0,0,0,1-1.08,3.26,3.26,0,0,0,.37-1.53,3.19,3.19,0,0,0-.37-1.52,2.77,2.77,0,0,0-1-1.08,3.08,3.08,0,0,0-3,0,2.77,2.77,0,0,0-1,1.08,3.19,3.19,0,0,0-.37,1.52,3.26,3.26,0,0,0,.37,1.53,2.77,2.77,0,0,0,1,1.08,3,3,0,0,0,3,0Z" style="fill:#fff"/><path d="M85.76,55.41a.52.52,0,0,1,.14.36V62.4a.46.46,0,0,1-.15.36.51.51,0,0,1-.72,0,.45.45,0,0,1-.14-.36V57.54l-2.37,4.82a.52.52,0,0,1-.44.26.47.47,0,0,1-.47-.31l-2.34-4.69V62.4a.46.46,0,0,1-.15.36.5.5,0,0,1-.37.15.5.5,0,0,1-.5-.51V55.77a.52.52,0,0,1,.14-.36.49.49,0,0,1,.36-.15.52.52,0,0,1,.46.28l2.9,5.82,2.83-5.82a.52.52,0,0,1,.45-.28A.5.5,0,0,1,85.76,55.41Z" style="fill:#fff"/><path d="M94.36,62.41a.45.45,0,0,1-.15.35.46.46,0,0,1-.36.15.6.6,0,0,1-.28-.08.54.54,0,0,1-.19-.23l-.54-1.37H89.32l-.56,1.37a.54.54,0,0,1-.19.23.57.57,0,0,1-.28.08.49.49,0,0,1-.36-.15.52.52,0,0,1-.14-.36.68.68,0,0,1,0-.22l2.75-6.57a.51.51,0,0,1,.48-.35.47.47,0,0,1,.48.35l2.76,6.59A.46.46,0,0,1,94.36,62.41Zm-1.87-2-1.4-3.48-1.43,3.48Zm-1.75-6.1a.49.49,0,0,1-.14-.36.46.46,0,0,1,.12-.33l1-1a.49.49,0,0,1,.35-.15.48.48,0,0,1,.36.15.48.48,0,0,1,.14.36.46.46,0,0,1-.13.35l-1,.95a.53.53,0,0,1-.71,0Z" style="fill:#fff"/><path d="M96.91,62.58a2.33,2.33,0,0,1-1.07-1.13.54.54,0,0,1,0-.19A.36.36,0,0,1,95.9,61a.55.55,0,0,1,.29-.16h.1a.53.53,0,0,1,.3.09.52.52,0,0,1,.21.25,1.43,1.43,0,0,0,.7.64,2.4,2.4,0,0,0,1.14.27,2.18,2.18,0,0,0,1.25-.34,1.05,1.05,0,0,0,.5-.92,1.25,1.25,0,0,0-.43-1,2.16,2.16,0,0,0-1.31-.48,3.44,3.44,0,0,1-1.91-.71,1.89,1.89,0,0,1-.69-1.49,1.75,1.75,0,0,1,.35-1.08,2.29,2.29,0,0,1,1-.69,3.68,3.68,0,0,1,1.4-.24,2.74,2.74,0,0,1,1.42.34,3,3,0,0,1,1,1,.62.62,0,0,1,.11.35.41.41,0,0,1-.19.35.44.44,0,0,1-.26.07.5.5,0,0,1-.46-.27,1.79,1.79,0,0,0-.67-.67,1.88,1.88,0,0,0-1-.23,2.22,2.22,0,0,0-1.2.28.94.94,0,0,0-.46.84,1.06,1.06,0,0,0,.41.86,2.85,2.85,0,0,0,1.46.44,3.12,3.12,0,0,1,1.83.71,2,2,0,0,1,.64,1.57A1.92,1.92,0,0,1,101,62a2.34,2.34,0,0,1-1,.75,3.61,3.61,0,0,1-1.36.25A3.5,3.5,0,0,1,96.91,62.58Z" style="fill:#fff"/></svg>