<?xml version="1.0" encoding="utf-8"?>
<!-- Generator: Adobe Illustrator 23.0.3, SVG Export Plug-In . SVG Version: 6.00 Build 0)  -->
<svg version="1.1" id="Capa_1" xmlns="http://www.w3.org/2000/svg" xmlns:xlink="http://www.w3.org/1999/xlink" x="0px" y="0px"
	 viewBox="0 0 110.76 46" style="enable-background:new 0 0 110.76 46;" xml:space="preserve">
<style type="text/css">
	.st0{fill:#FFFFFF;}
	.st1{fill:none;stroke:#1D4768;stroke-width:2;stroke-miterlimit:10;}
	.st2{fill:#FF6600;}
	.st3{fill:#1C4868;}
	.st4{fill:url(#SVGID_1_);}
	.st5{fill:url(#SVGID_2_);}
	.st6{fill:#FFCD10;}
	.st7{fill:#1D4768;}
	.st8{fill:#1B4869;stroke:#FFFFFF;stroke-width:3.1998;stroke-miterlimit:10;}
	.st9{fill:#FFCE5A;}
	.st10{fill:#B4DAF2;}
	.st11{fill:#9CBFE3;}
	.st12{fill:none;stroke:#FFFFFF;stroke-width:1.1875;stroke-linecap:round;stroke-linejoin:round;stroke-miterlimit:10;}
	.st13{fill:none;stroke:#F7A533;stroke-width:0.8313;stroke-miterlimit:10;}
	.st14{fill:none;stroke:#7CA3D3;stroke-width:0.4818;stroke-linecap:round;stroke-linejoin:round;stroke-miterlimit:10;}
	.st15{fill:url(#SVGID_3_);}
	.st16{fill:none;stroke:#FFFFFF;stroke-width:0.3435;stroke-linecap:round;stroke-linejoin:round;stroke-miterlimit:10;}
	.st17{opacity:0.5;fill:#FFFFFF;}
	.st18{clip-path:url(#SVGID_5_);}
	.st19{fill:#1E994C;}
	.st20{fill:#93D566;}
	.st21{fill:#1B4869;}
	.st22{fill:#363E45;}
	.st23{fill:#42BFC4;}
	.st24{fill:#F6F0EA;}
	.st25{fill:url(#SVGID_6_);}
	.st26{fill:url(#SVGID_7_);}
	.st27{fill:url(#SVGID_8_);}
</style>
<g>
	<g>
		<path class="st0" d="M40.67,32.67H22.38c-0.46,0-0.82,0.37-0.82,0.82c0,0.46,0.37,0.82,0.82,0.82h18.28"/>
		<path class="st0" d="M40.67,26.83H17.46c-0.45,0-0.82,0.37-0.82,0.82c0,0.45,0.37,0.82,0.82,0.82h23.21"/>
		<path class="st0" d="M40.67,38.51H24.94c-0.45,0-0.82,0.37-0.82,0.83c0,0.45,0.37,0.82,0.82,0.82h15.73"/>
		<path class="st0" d="M40.67,44.35H25.92c-0.45,0-0.82,0.37-0.82,0.82c0,0.45,0.37,0.82,0.82,0.82h14.75"/>
		<path class="st0" d="M6.89,40.16c1.36,1.33,2.13,3.1,2.17,5c0.01,0.45-0.35,0.83-0.8,0.84c-0.01,0-0.01,0-0.02,0
			c-0.44,0-0.81-0.36-0.82-0.81c-0.07-3.01-2.58-5.46-5.58-5.46c-0.06,0-0.12,0-0.18,0c-0.46,0.02-0.84-0.34-0.85-0.8
			c-0.01-0.46,0.34-0.84,0.8-0.85c0.08,0,0.15,0,0.23,0C3.73,38.09,5.53,38.83,6.89,40.16L6.89,40.16z"/>
		<path class="st0" d="M2.02,32.37c-0.14,0-0.28,0-0.42,0.01c-0.46,0.02-0.81,0.4-0.8,0.85c0.02,0.46,0.4,0.81,0.85,0.8
			c0.12-0.01,0.24-0.01,0.36-0.01c6.17,0,11.3,5.01,11.44,11.18c0.01,0.45,0.38,0.81,0.82,0.81c0,0,0.01,0,0.02,0
			c0.45-0.01,0.81-0.39,0.8-0.84c-0.08-3.43-1.47-6.65-3.93-9.05C8.71,33.7,5.46,32.37,2.02,32.37L2.02,32.37z"/>
		<path class="st0" d="M2.19,26.82c-0.18,0-0.37,0-0.6,0.01c-0.46,0.02-0.81,0.4-0.8,0.85c0.02,0.45,0.4,0.81,0.85,0.8
			c0.2-0.01,0.38-0.01,0.54-0.01c9.23,0,16.92,7.51,17.13,16.73C19.33,45.64,19.7,46,20.14,46c0,0,0.01,0,0.02,0
			c0.46-0.01,0.82-0.39,0.81-0.84c-0.11-4.92-2.11-9.53-5.64-12.98C11.8,28.72,7.13,26.82,2.19,26.82L2.19,26.82z"/>
		<path class="st0" d="M40.67,32.67H22.38c-0.46,0-0.82,0.37-0.82,0.82c0,0.46,0.37,0.82,0.82,0.82h18.28"/>
		<path class="st0" d="M40.67,26.83H17.46c-0.45,0-0.82,0.37-0.82,0.82c0,0.45,0.37,0.82,0.82,0.82h23.21"/>
		<path class="st0" d="M40.67,38.51H24.94c-0.45,0-0.82,0.37-0.82,0.83c0,0.45,0.37,0.82,0.82,0.82h15.73"/>
		<path class="st0" d="M40.67,44.35H25.92c-0.45,0-0.82,0.37-0.82,0.82c0,0.45,0.37,0.82,0.82,0.82h14.75"/>
		<g>
			<g>
				<path class="st0" d="M4.19,21.56c-1.31-0.75-2.34-1.79-3.08-3.11C0.37,17.12,0,15.65,0,14.02c0-1.67,0.36-3.17,1.08-4.49
					C1.8,8.2,2.81,7.17,4.1,6.43c1.29-0.74,2.75-1.11,4.38-1.11c2.46,0,4.51,0.94,6.13,2.81c0.21,0.23,0.31,0.5,0.31,0.82
					c0,0.46-0.23,0.84-0.69,1.16c-0.21,0.15-0.45,0.22-0.72,0.22c-0.48,0-0.89-0.19-1.22-0.56c-0.52-0.56-1.09-0.97-1.7-1.24
					C9.98,8.27,9.27,8.14,8.48,8.14c-1.61,0-2.91,0.54-3.91,1.61c-1,1.07-1.5,2.5-1.5,4.27c0,1.13,0.24,2.13,0.71,3.02
					c0.47,0.89,1.12,1.58,1.97,2.08c0.84,0.5,1.81,0.75,2.89,0.75c1.42,0,2.57-0.36,3.44-1.1c0.4-0.29,0.78-0.44,1.16-0.44
					c0.29,0,0.56,0.09,0.81,0.28c0.4,0.33,0.59,0.71,0.59,1.13c0,0.31-0.12,0.6-0.37,0.84c-1.5,1.4-3.38,2.1-5.63,2.1
					C6.99,22.69,5.51,22.31,4.19,21.56z"/>
				<path class="st0" d="M27.93,19.87c0.26,0.29,0.39,0.67,0.39,1.13c0,0.46-0.17,0.84-0.52,1.13c-0.34,0.29-0.79,0.44-1.33,0.44
					h-0.56c-1.02,0-1.96-0.27-2.8-0.8c-0.84-0.53-1.51-1.26-1.99-2.17c-0.48-0.92-0.72-1.95-0.72-3.1V8.76h-1.44
					c-0.44,0-0.79-0.12-1.06-0.38c-0.27-0.25-0.41-0.56-0.41-0.94c0-0.42,0.13-0.75,0.41-1c0.27-0.25,0.63-0.38,1.06-0.38h1.44V1.56
					c0-0.46,0.15-0.83,0.44-1.13C21.13,0.15,21.51,0,21.97,0c0.46,0,0.83,0.15,1.13,0.44c0.29,0.29,0.44,0.67,0.44,1.13v4.51h2.66
					c0.44,0,0.79,0.12,1.06,0.38c0.27,0.25,0.41,0.59,0.41,1c0,0.38-0.14,0.69-0.41,0.94c-0.27,0.25-0.63,0.38-1.06,0.38h-2.66v7.73
					c0,0.83,0.23,1.53,0.69,2.1c0.46,0.56,1.02,0.84,1.69,0.84h1.06C27.35,19.43,27.67,19.58,27.93,19.87z"/>
				<path class="st0" d="M40.48,19.87c0.26,0.29,0.39,0.67,0.39,1.13c0,0.46-0.17,0.84-0.52,1.13c-0.34,0.29-0.79,0.44-1.33,0.44
					h-0.56c-1.02,0-1.96-0.27-2.8-0.8c-0.84-0.53-1.51-1.26-1.99-2.17c-0.48-0.92-0.72-1.95-0.72-3.1V8.76h-1.44
					c-0.44,0-0.79-0.12-1.06-0.38c-0.27-0.25-0.41-0.56-0.41-0.94c0-0.42,0.14-0.75,0.41-1c0.27-0.25,0.62-0.38,1.06-0.38h1.44V1.56
					c0-0.46,0.14-0.83,0.44-1.13C33.68,0.15,34.06,0,34.52,0c0.46,0,0.83,0.15,1.13,0.44c0.29,0.29,0.44,0.67,0.44,1.13v4.51h2.66
					c0.44,0,0.79,0.12,1.06,0.38c0.27,0.25,0.41,0.59,0.41,1c0,0.38-0.14,0.69-0.41,0.94c-0.27,0.25-0.62,0.38-1.06,0.38h-2.66v7.73
					c0,0.83,0.23,1.53,0.69,2.1c0.46,0.56,1.02,0.84,1.69,0.84h1.06C39.9,19.43,40.22,19.58,40.48,19.87z"/>
			</g>
		</g>
		<path class="st0" d="M40.67,32.67H22.38c-0.46,0-0.82,0.37-0.82,0.82c0,0.46,0.37,0.82,0.82,0.82h18.28"/>
		<path class="st0" d="M40.67,26.83H17.46c-0.45,0-0.82,0.37-0.82,0.82c0,0.45,0.37,0.82,0.82,0.82h23.21"/>
		<path class="st0" d="M40.67,38.51H24.94c-0.45,0-0.82,0.37-0.82,0.83c0,0.45,0.37,0.82,0.82,0.82h15.73"/>
		<path class="st0" d="M40.67,44.35H25.92c-0.45,0-0.82,0.37-0.82,0.82c0,0.45,0.37,0.82,0.82,0.82h14.75"/>
		<g>
			<g>
				<g>
					<path class="st0" d="M47.61,29.09c-0.43-0.26-0.78-0.62-1.03-1.07c-0.25-0.45-0.38-0.95-0.38-1.5c0-0.54,0.12-1.04,0.38-1.48
						c0.25-0.45,0.59-0.8,1.03-1.07c0.44-0.26,0.91-0.4,1.44-0.4c0.37,0,0.7,0.05,0.97,0.15c0.27,0.1,0.55,0.26,0.83,0.49
						c0.06,0.04,0.1,0.09,0.12,0.14c0.02,0.05,0.03,0.1,0.03,0.17c0,0.1-0.04,0.18-0.11,0.24c-0.07,0.06-0.16,0.1-0.25,0.1
						c-0.09,0-0.18-0.03-0.26-0.1c-0.2-0.17-0.4-0.3-0.59-0.37c-0.19-0.08-0.44-0.12-0.74-0.12c-0.38,0-0.74,0.1-1.06,0.3
						c-0.32,0.2-0.58,0.48-0.77,0.82c-0.19,0.35-0.28,0.72-0.28,1.13c0,0.41,0.1,0.79,0.28,1.13c0.19,0.34,0.44,0.62,0.77,0.82
						c0.32,0.2,0.67,0.3,1.06,0.3c0.47,0,0.92-0.16,1.36-0.49c0.08-0.06,0.16-0.09,0.24-0.09c0.09,0,0.17,0.03,0.23,0.1
						c0.06,0.07,0.09,0.15,0.09,0.26c0,0.1-0.04,0.19-0.12,0.27c-0.53,0.43-1.13,0.64-1.8,0.64C48.53,29.48,48.05,29.35,47.61,29.09
						z"/>
					<path class="st0" d="M57.09,29.03c0,0.1-0.04,0.19-0.11,0.27c-0.07,0.07-0.16,0.11-0.27,0.11c-0.07,0-0.14-0.02-0.21-0.06
						c-0.07-0.04-0.11-0.1-0.14-0.17l-0.41-1.03H53.3l-0.42,1.03c-0.03,0.07-0.08,0.13-0.15,0.17c-0.07,0.04-0.13,0.06-0.21,0.06
						c-0.11,0-0.2-0.04-0.27-0.12c-0.07-0.08-0.11-0.17-0.11-0.27c0-0.05,0.01-0.11,0.04-0.17l2.07-4.94
						c0.07-0.17,0.19-0.26,0.36-0.26c0.18,0,0.3,0.09,0.36,0.26l2.08,4.95C57.08,28.93,57.09,28.99,57.09,29.03z M55.68,27.51
						l-1.05-2.62l-1.08,2.62H55.68z"/>
					<path class="st0" d="M64.13,23.76c0.07,0.07,0.11,0.17,0.11,0.27v4.99c0,0.11-0.04,0.2-0.11,0.27
						c-0.08,0.07-0.17,0.11-0.27,0.11c-0.11,0-0.2-0.04-0.27-0.11c-0.07-0.07-0.11-0.17-0.11-0.27v-3.66L61.69,29
						c-0.09,0.13-0.2,0.19-0.33,0.19c-0.16,0-0.28-0.08-0.35-0.23l-1.76-3.53v3.6c0,0.11-0.04,0.2-0.11,0.27
						c-0.07,0.07-0.17,0.11-0.27,0.11c-0.11,0-0.2-0.04-0.27-0.11c-0.07-0.07-0.11-0.17-0.11-0.27v-4.99c0-0.11,0.03-0.2,0.11-0.27
						c0.07-0.07,0.16-0.11,0.27-0.11c0.15,0,0.26,0.07,0.34,0.21l2.19,4.38l2.13-4.38c0.08-0.14,0.2-0.21,0.34-0.21
						C63.97,23.66,64.06,23.69,64.13,23.76z"/>
					<path class="st0" d="M66.38,29.3c-0.07-0.07-0.11-0.17-0.11-0.27v-4.99c0-0.11,0.03-0.21,0.11-0.28
						c0.07-0.07,0.16-0.11,0.27-0.11h1.47c0.36,0,0.69,0.08,0.98,0.24c0.29,0.16,0.51,0.39,0.67,0.68c0.16,0.29,0.24,0.62,0.24,0.99
						c0,0.36-0.08,0.68-0.24,0.96c-0.16,0.28-0.38,0.5-0.67,0.65c-0.29,0.16-0.61,0.24-0.98,0.24h-1.09v1.61
						c0,0.11-0.03,0.2-0.11,0.27c-0.07,0.07-0.16,0.11-0.28,0.11C66.54,29.41,66.45,29.37,66.38,29.3z M68.12,26.7
						c0.33,0,0.61-0.11,0.83-0.32c0.22-0.21,0.32-0.49,0.32-0.82c0-0.35-0.11-0.63-0.32-0.86c-0.22-0.23-0.49-0.34-0.83-0.34h-1.09
						v2.34H68.12z"/>
					<path class="st0" d="M72.55,29.11c-0.45-0.25-0.79-0.6-1.04-1.05c-0.25-0.45-0.37-0.96-0.37-1.53c0-0.57,0.12-1.08,0.37-1.52
						c0.25-0.45,0.59-0.8,1.04-1.05c0.44-0.25,0.95-0.38,1.52-0.38c0.56,0,1.07,0.13,1.51,0.38c0.44,0.25,0.79,0.6,1.04,1.05
						c0.25,0.45,0.37,0.95,0.37,1.52c0,0.57-0.12,1.08-0.37,1.53c-0.25,0.45-0.59,0.8-1.03,1.05c-0.44,0.25-0.95,0.37-1.52,0.37
						C73.5,29.48,72.99,29.36,72.55,29.11z M75.19,28.49c0.33-0.2,0.59-0.47,0.78-0.81c0.19-0.34,0.28-0.73,0.28-1.15
						c0-0.42-0.09-0.81-0.28-1.15c-0.19-0.34-0.45-0.61-0.78-0.81c-0.33-0.2-0.71-0.29-1.13-0.29c-0.42,0-0.8,0.1-1.13,0.29
						c-0.33,0.2-0.59,0.47-0.78,0.81c-0.19,0.34-0.28,0.73-0.28,1.15c0,0.42,0.09,0.81,0.28,1.15c0.19,0.34,0.45,0.61,0.78,0.81
						c0.33,0.2,0.71,0.3,1.13,0.3C74.48,28.79,74.86,28.69,75.19,28.49z"/>
					<path class="st0" d="M50.4,31.95c0.07,0.07,0.1,0.15,0.1,0.25c0,0.1-0.03,0.19-0.1,0.25c-0.07,0.07-0.15,0.1-0.25,0.1h-1.58
						v4.66c0,0.11-0.04,0.2-0.11,0.27c-0.07,0.07-0.16,0.11-0.27,0.11c-0.11,0-0.2-0.04-0.27-0.11c-0.07-0.07-0.11-0.16-0.11-0.27
						v-4.66H46.2c-0.1,0-0.19-0.03-0.25-0.1c-0.07-0.07-0.1-0.15-0.1-0.25c0-0.1,0.03-0.19,0.1-0.25c0.07-0.07,0.15-0.1,0.25-0.1
						h3.94C50.25,31.85,50.33,31.88,50.4,31.95z"/>
					<path class="st0" d="M52.01,37.49c-0.07-0.07-0.11-0.16-0.11-0.27v-4.99c0-0.11,0.04-0.2,0.11-0.28
						c0.07-0.07,0.16-0.11,0.27-0.11h3.33c0.11,0,0.2,0.03,0.27,0.1c0.07,0.07,0.1,0.15,0.1,0.26c0,0.1-0.04,0.19-0.1,0.25
						c-0.07,0.06-0.16,0.1-0.27,0.1h-2.95v1.79h2.11c0.11,0,0.2,0.03,0.27,0.1c0.07,0.07,0.11,0.15,0.11,0.25
						c0,0.1-0.04,0.19-0.11,0.25c-0.07,0.07-0.16,0.1-0.27,0.1h-2.11v1.84h2.95c0.11,0,0.2,0.03,0.27,0.1
						c0.07,0.07,0.1,0.15,0.1,0.25c0,0.11-0.04,0.2-0.1,0.26c-0.07,0.07-0.16,0.1-0.27,0.1h-3.33
						C52.17,37.6,52.08,37.56,52.01,37.49z"/>
					<path class="st0" d="M58.74,37.28c-0.44-0.26-0.78-0.62-1.03-1.07c-0.25-0.45-0.38-0.95-0.38-1.5c0-0.54,0.13-1.03,0.38-1.48
						c0.25-0.45,0.59-0.8,1.03-1.07c0.44-0.26,0.91-0.39,1.44-0.39c0.37,0,0.7,0.05,0.97,0.15c0.27,0.1,0.55,0.26,0.83,0.49
						c0.06,0.04,0.1,0.09,0.12,0.14c0.02,0.05,0.03,0.1,0.03,0.17c0,0.1-0.04,0.18-0.11,0.24c-0.07,0.06-0.16,0.09-0.25,0.09
						c-0.09,0-0.18-0.03-0.26-0.09c-0.2-0.17-0.4-0.3-0.59-0.37c-0.19-0.08-0.44-0.11-0.74-0.11c-0.38,0-0.74,0.1-1.06,0.3
						c-0.32,0.2-0.58,0.47-0.77,0.82c-0.19,0.35-0.29,0.72-0.29,1.13c0,0.41,0.1,0.79,0.29,1.14c0.19,0.35,0.44,0.62,0.77,0.82
						c0.32,0.2,0.67,0.3,1.06,0.3c0.47,0,0.92-0.16,1.36-0.49c0.08-0.06,0.16-0.09,0.24-0.09c0.09,0,0.17,0.03,0.23,0.1
						c0.06,0.07,0.09,0.15,0.09,0.26c0,0.1-0.04,0.19-0.12,0.27c-0.53,0.43-1.13,0.64-1.81,0.64
						C59.66,37.67,59.18,37.54,58.74,37.28z"/>
					<path class="st0" d="M63.99,37.49c-0.07-0.07-0.11-0.16-0.11-0.28v-4.99c0-0.11,0.04-0.2,0.11-0.28
						c0.07-0.07,0.16-0.11,0.27-0.11c0.05,0,0.11,0.01,0.16,0.04c0.05,0.03,0.1,0.06,0.13,0.1l3.21,4.27v-4.03
						c0-0.11,0.04-0.2,0.11-0.28c0.07-0.07,0.17-0.11,0.27-0.11c0.11,0,0.2,0.03,0.27,0.11c0.07,0.07,0.11,0.16,0.11,0.28v4.99
						c0,0.11-0.03,0.21-0.11,0.28c-0.07,0.07-0.16,0.11-0.27,0.11c-0.05,0-0.11-0.01-0.17-0.03c-0.06-0.02-0.1-0.05-0.13-0.1
						l-3.21-4.27v4.02c0,0.11-0.04,0.2-0.11,0.27c-0.07,0.07-0.16,0.11-0.28,0.11C64.15,37.6,64.06,37.56,63.99,37.49z"/>
					<path class="st0" d="M71.68,37.3c-0.44-0.25-0.79-0.6-1.03-1.05c-0.25-0.45-0.37-0.96-0.37-1.53c0-0.57,0.12-1.08,0.37-1.52
						c0.25-0.45,0.59-0.8,1.03-1.04c0.44-0.25,0.95-0.38,1.52-0.38c0.57,0,1.07,0.12,1.51,0.38c0.44,0.25,0.79,0.6,1.04,1.04
						c0.25,0.45,0.37,0.96,0.37,1.52c0,0.57-0.12,1.08-0.37,1.53c-0.25,0.45-0.59,0.8-1.03,1.05c-0.44,0.25-0.95,0.38-1.52,0.38
						C72.64,37.67,72.13,37.55,71.68,37.3z M74.33,36.68c0.34-0.2,0.59-0.47,0.78-0.82c0.19-0.34,0.28-0.73,0.28-1.15
						c0-0.42-0.09-0.8-0.28-1.15c-0.19-0.34-0.45-0.61-0.78-0.81c-0.33-0.2-0.71-0.3-1.13-0.3c-0.42,0-0.8,0.1-1.13,0.3
						c-0.33,0.19-0.59,0.46-0.78,0.81c-0.19,0.34-0.28,0.73-0.28,1.15c0,0.42,0.09,0.81,0.28,1.15c0.19,0.34,0.45,0.62,0.78,0.82
						c0.34,0.2,0.71,0.3,1.13,0.3C73.62,36.98,74,36.88,74.33,36.68z"/>
					<path class="st0" d="M77.99,37.49c-0.07-0.07-0.11-0.16-0.11-0.27v-4.99c0-0.11,0.04-0.2,0.11-0.27
						c0.07-0.07,0.16-0.11,0.27-0.11c0.11,0,0.2,0.04,0.27,0.11c0.07,0.07,0.11,0.16,0.11,0.27v4.6h2.66c0.11,0,0.2,0.04,0.27,0.11
						c0.07,0.07,0.11,0.16,0.11,0.27c0,0.11-0.04,0.2-0.11,0.27c-0.07,0.07-0.16,0.11-0.27,0.11h-3.05
						C78.15,37.6,78.06,37.56,77.99,37.49z"/>
					<path class="st0" d="M83.79,37.3c-0.44-0.25-0.79-0.6-1.04-1.05c-0.24-0.45-0.37-0.96-0.37-1.53c0-0.57,0.12-1.08,0.37-1.52
						c0.25-0.45,0.59-0.8,1.04-1.04c0.44-0.25,0.95-0.38,1.52-0.38c0.57,0,1.07,0.12,1.51,0.38c0.44,0.25,0.79,0.6,1.04,1.04
						c0.25,0.45,0.37,0.96,0.37,1.52c0,0.57-0.12,1.08-0.37,1.53c-0.25,0.45-0.59,0.8-1.04,1.05c-0.44,0.25-0.95,0.38-1.52,0.38
						C84.74,37.67,84.23,37.55,83.79,37.3z M86.43,36.68c0.33-0.2,0.59-0.47,0.78-0.82c0.19-0.34,0.28-0.73,0.28-1.15
						c0-0.42-0.09-0.8-0.28-1.15c-0.19-0.34-0.45-0.61-0.78-0.81c-0.33-0.2-0.71-0.3-1.13-0.3c-0.42,0-0.8,0.1-1.13,0.3
						c-0.33,0.19-0.59,0.46-0.78,0.81c-0.19,0.34-0.28,0.73-0.28,1.15c0,0.42,0.09,0.81,0.28,1.15c0.19,0.34,0.45,0.62,0.78,0.82
						c0.34,0.2,0.71,0.3,1.13,0.3C85.73,36.98,86.1,36.88,86.43,36.68z M85.06,31.11c-0.07-0.07-0.1-0.16-0.1-0.27
						c0-0.1,0.03-0.19,0.09-0.25l0.72-0.72c0.07-0.07,0.16-0.11,0.26-0.11c0.11,0,0.2,0.04,0.27,0.11c0.07,0.07,0.11,0.17,0.11,0.27
						s-0.03,0.19-0.1,0.26l-0.71,0.71c-0.07,0.07-0.15,0.1-0.26,0.1C85.22,31.21,85.13,31.18,85.06,31.11z"/>
					<path class="st0" d="M94.23,34.72c0.07,0.07,0.11,0.16,0.11,0.28v1.76c0,0.12-0.04,0.21-0.12,0.27
						c-0.51,0.43-1.12,0.64-1.8,0.64c-0.53,0-1-0.13-1.44-0.39c-0.43-0.26-0.78-0.62-1.03-1.07c-0.25-0.45-0.38-0.95-0.38-1.5
						c0-0.54,0.13-1.03,0.38-1.48c0.25-0.45,0.59-0.8,1.03-1.07c0.44-0.26,0.91-0.39,1.44-0.39c0.37,0,0.7,0.05,0.97,0.15
						c0.27,0.1,0.55,0.26,0.83,0.49c0.06,0.04,0.1,0.09,0.12,0.14c0.02,0.05,0.03,0.1,0.03,0.17c0,0.1-0.03,0.18-0.11,0.24
						c-0.07,0.06-0.15,0.09-0.25,0.09c-0.09,0-0.17-0.03-0.25-0.09c-0.2-0.17-0.4-0.3-0.59-0.37c-0.19-0.08-0.44-0.11-0.74-0.11
						c-0.38,0-0.74,0.1-1.06,0.3c-0.32,0.2-0.58,0.47-0.77,0.82c-0.19,0.35-0.28,0.72-0.28,1.13c0,0.41,0.1,0.79,0.28,1.14
						c0.19,0.35,0.45,0.62,0.77,0.82c0.32,0.2,0.67,0.3,1.06,0.3c0.41,0,0.81-0.12,1.19-0.37v-1.31h-1.02c-0.11,0-0.2-0.03-0.28-0.1
						c-0.07-0.06-0.11-0.14-0.11-0.24c0-0.1,0.03-0.18,0.11-0.24c0.07-0.06,0.16-0.1,0.28-0.1h1.38
						C94.07,34.62,94.16,34.65,94.23,34.72z"/>
					<path class="st0" d="M96.22,37.49c-0.07-0.07-0.11-0.16-0.11-0.27v-4.99c0-0.11,0.04-0.2,0.11-0.28
						c0.07-0.07,0.17-0.11,0.27-0.11c0.11,0,0.2,0.03,0.27,0.11c0.07,0.07,0.11,0.16,0.11,0.28v4.99c0,0.11-0.04,0.2-0.11,0.27
						c-0.07,0.07-0.16,0.11-0.27,0.11C96.39,37.6,96.3,37.56,96.22,37.49z"/>
					<path class="st0" d="M100.04,37.28c-0.43-0.26-0.78-0.62-1.03-1.07c-0.25-0.45-0.38-0.95-0.38-1.5c0-0.54,0.12-1.03,0.38-1.48
						c0.25-0.45,0.59-0.8,1.03-1.07c0.43-0.26,0.91-0.39,1.44-0.39c0.37,0,0.7,0.05,0.97,0.15c0.27,0.1,0.55,0.26,0.83,0.49
						c0.06,0.04,0.1,0.09,0.12,0.14c0.02,0.05,0.03,0.1,0.03,0.17c0,0.1-0.03,0.18-0.1,0.24c-0.07,0.06-0.15,0.09-0.25,0.09
						c-0.09,0-0.18-0.03-0.26-0.09c-0.2-0.17-0.4-0.3-0.59-0.37c-0.19-0.08-0.44-0.11-0.74-0.11c-0.38,0-0.74,0.1-1.06,0.3
						c-0.32,0.2-0.58,0.47-0.76,0.82c-0.19,0.35-0.28,0.72-0.28,1.13c0,0.41,0.1,0.79,0.28,1.14c0.19,0.35,0.44,0.62,0.76,0.82
						c0.32,0.2,0.67,0.3,1.06,0.3c0.47,0,0.92-0.16,1.36-0.49c0.08-0.06,0.16-0.09,0.24-0.09c0.09,0,0.17,0.03,0.23,0.1
						c0.06,0.07,0.09,0.15,0.09,0.26c0,0.1-0.04,0.19-0.12,0.27c-0.53,0.43-1.13,0.64-1.8,0.64
						C100.96,37.67,100.48,37.54,100.04,37.28z"/>
					<path class="st0" d="M106.32,37.3c-0.45-0.25-0.79-0.6-1.04-1.05c-0.25-0.45-0.37-0.96-0.37-1.53c0-0.57,0.12-1.08,0.37-1.52
						c0.24-0.45,0.59-0.8,1.04-1.04c0.44-0.25,0.95-0.38,1.52-0.38c0.56,0,1.07,0.12,1.51,0.38c0.44,0.25,0.79,0.6,1.04,1.04
						c0.25,0.45,0.37,0.96,0.37,1.52c0,0.57-0.12,1.08-0.37,1.53c-0.25,0.45-0.59,0.8-1.04,1.05c-0.44,0.25-0.95,0.38-1.52,0.38
						C107.27,37.67,106.76,37.55,106.32,37.3z M108.97,36.68c0.34-0.2,0.59-0.47,0.78-0.82c0.19-0.34,0.28-0.73,0.28-1.15
						c0-0.42-0.09-0.8-0.28-1.15c-0.19-0.34-0.45-0.61-0.78-0.81c-0.33-0.2-0.71-0.3-1.13-0.3c-0.42,0-0.8,0.1-1.13,0.3
						c-0.33,0.19-0.59,0.46-0.78,0.81c-0.19,0.34-0.28,0.73-0.28,1.15c0,0.42,0.09,0.81,0.28,1.15c0.19,0.34,0.45,0.62,0.78,0.82
						c0.33,0.2,0.71,0.3,1.13,0.3C108.26,36.98,108.63,36.88,108.97,36.68z"/>
					<path class="st0" d="M50.4,40.14c0.07,0.07,0.1,0.15,0.1,0.25c0,0.1-0.03,0.19-0.1,0.25c-0.07,0.07-0.15,0.1-0.25,0.1h-1.58
						v4.66c0,0.11-0.04,0.2-0.11,0.27c-0.07,0.07-0.16,0.11-0.27,0.11c-0.11,0-0.2-0.04-0.27-0.11c-0.07-0.07-0.11-0.16-0.11-0.27
						v-4.66H46.2c-0.1,0-0.19-0.03-0.25-0.1c-0.07-0.07-0.1-0.15-0.1-0.25c0-0.1,0.03-0.19,0.1-0.25c0.07-0.07,0.15-0.1,0.25-0.1
						h3.94C50.25,40.04,50.33,40.07,50.4,40.14z"/>
					<path class="st0" d="M52.67,45.49c-0.44-0.25-0.79-0.6-1.03-1.05c-0.25-0.45-0.37-0.96-0.37-1.53c0-0.57,0.12-1.08,0.37-1.52
						c0.24-0.45,0.59-0.8,1.03-1.05c0.44-0.25,0.95-0.38,1.52-0.38c0.56,0,1.07,0.12,1.51,0.38c0.45,0.25,0.79,0.6,1.04,1.05
						c0.25,0.45,0.37,0.95,0.37,1.52c0,0.57-0.12,1.08-0.37,1.53c-0.25,0.45-0.59,0.8-1.03,1.05c-0.44,0.25-0.95,0.38-1.52,0.38
						C53.62,45.86,53.11,45.74,52.67,45.49z M55.32,44.87c0.33-0.2,0.59-0.47,0.78-0.81c0.19-0.34,0.28-0.73,0.28-1.15
						c0-0.42-0.09-0.81-0.28-1.15c-0.19-0.34-0.44-0.61-0.78-0.81c-0.33-0.2-0.71-0.29-1.13-0.29s-0.8,0.1-1.13,0.29
						c-0.33,0.2-0.59,0.47-0.78,0.81C52.09,42.1,52,42.49,52,42.91c0,0.42,0.09,0.8,0.28,1.15c0.19,0.34,0.45,0.61,0.78,0.81
						c0.34,0.2,0.71,0.3,1.13,0.3C54.6,45.17,54.98,45.07,55.32,44.87z"/>
					<path class="st0" d="M64.51,40.15c0.07,0.08,0.11,0.16,0.11,0.27v4.99c0,0.11-0.04,0.2-0.11,0.27
						c-0.08,0.07-0.17,0.11-0.27,0.11c-0.11,0-0.2-0.04-0.27-0.11c-0.07-0.07-0.11-0.16-0.11-0.27v-3.66l-1.78,3.63
						c-0.08,0.13-0.2,0.19-0.33,0.19c-0.16,0-0.28-0.08-0.35-0.23l-1.76-3.53v3.59c0,0.11-0.04,0.2-0.11,0.27
						c-0.07,0.07-0.17,0.11-0.27,0.11c-0.11,0-0.2-0.04-0.27-0.11c-0.07-0.07-0.11-0.16-0.11-0.27v-4.99c0-0.11,0.04-0.2,0.11-0.27
						c0.07-0.07,0.16-0.11,0.27-0.11c0.15,0,0.26,0.07,0.34,0.21l2.19,4.38l2.13-4.38c0.08-0.14,0.19-0.21,0.34-0.21
						C64.35,40.04,64.44,40.07,64.51,40.15z"/>
					<path class="st0" d="M70.99,45.42c0,0.1-0.04,0.19-0.11,0.26c-0.07,0.07-0.17,0.11-0.27,0.11c-0.07,0-0.14-0.02-0.21-0.06
						c-0.07-0.04-0.11-0.1-0.14-0.17l-0.41-1.03H67.2l-0.42,1.03c-0.03,0.07-0.08,0.13-0.15,0.17c-0.06,0.04-0.13,0.06-0.2,0.06
						c-0.11,0-0.2-0.04-0.27-0.11c-0.07-0.08-0.11-0.17-0.11-0.27c0-0.05,0.01-0.11,0.04-0.17l2.07-4.94
						c0.07-0.17,0.19-0.26,0.36-0.26c0.18,0,0.3,0.09,0.36,0.26l2.08,4.96C70.98,45.32,70.99,45.37,70.99,45.42z M69.58,43.89
						l-1.05-2.62l-1.07,2.62H69.58z M68.26,39.3c-0.07-0.07-0.1-0.16-0.1-0.27c0-0.1,0.03-0.19,0.09-0.25l0.72-0.72
						c0.07-0.07,0.16-0.11,0.27-0.11c0.11,0,0.2,0.04,0.27,0.11c0.07,0.07,0.1,0.17,0.1,0.27c0,0.11-0.03,0.19-0.1,0.26l-0.71,0.71
						c-0.07,0.07-0.15,0.1-0.26,0.1C68.42,39.4,68.33,39.37,68.26,39.3z"/>
					<path class="st0" d="M72.91,45.54c-0.39-0.22-0.66-0.5-0.81-0.85c-0.03-0.06-0.04-0.11-0.04-0.15c0-0.07,0.03-0.14,0.08-0.19
						c0.05-0.06,0.13-0.09,0.22-0.11c0.02-0.01,0.04-0.01,0.07-0.01c0.08,0,0.15,0.02,0.23,0.07c0.07,0.04,0.12,0.11,0.16,0.19
						c0.09,0.19,0.26,0.35,0.52,0.49c0.26,0.13,0.55,0.2,0.86,0.2c0.37,0,0.68-0.09,0.94-0.25c0.25-0.17,0.38-0.4,0.38-0.7
						c0-0.28-0.11-0.52-0.32-0.72c-0.22-0.2-0.54-0.32-0.99-0.36c-0.61-0.06-1.09-0.24-1.44-0.54c-0.35-0.3-0.52-0.67-0.52-1.12
						c0-0.31,0.09-0.58,0.27-0.81c0.18-0.23,0.43-0.4,0.74-0.52c0.31-0.12,0.66-0.18,1.05-0.18c0.42,0,0.78,0.09,1.07,0.26
						c0.29,0.17,0.54,0.42,0.74,0.74c0.06,0.09,0.09,0.18,0.09,0.27c0,0.11-0.05,0.2-0.15,0.27c-0.05,0.03-0.12,0.05-0.19,0.05
						c-0.07,0-0.14-0.02-0.21-0.05c-0.06-0.04-0.11-0.09-0.15-0.15c-0.13-0.22-0.3-0.39-0.5-0.51c-0.2-0.12-0.45-0.17-0.76-0.17
						c-0.37,0-0.67,0.07-0.9,0.22c-0.23,0.15-0.35,0.35-0.35,0.63c0,0.26,0.1,0.47,0.31,0.64c0.21,0.17,0.57,0.29,1.1,0.34
						c0.59,0.06,1.05,0.24,1.37,0.53c0.32,0.3,0.49,0.69,0.49,1.18c0,0.35-0.1,0.66-0.29,0.91c-0.19,0.25-0.44,0.44-0.76,0.57
						c-0.31,0.13-0.66,0.19-1.02,0.19C73.73,45.86,73.3,45.75,72.91,45.54z"/>
				</g>
			</g>
		</g>
	</g>
</g>
</svg>
