<svg xmlns="http://www.w3.org/2000/svg" width="187.37" height="43.21" viewBox="0 0 187.37 43.21"><path d="M21.61,0a21.61,21.61,0,1,0,21.6,21.59A21.61,21.61,0,0,0,21.61,0m0,7a14.63,14.63,0,0,1,13.67,9.51H7.94A14.61,14.61,0,0,1,21.61,7M7.18,23.76H18v12a14.63,14.63,0,0,1-10.81-12m18.05,12v-12H36a14.59,14.59,0,0,1-10.8,12" style="fill:#183B57"/><polygon points="61.48 16.49 54.84 16.49 54.84 10.45 75.25 10.45 75.25 16.49 68.47 16.49 68.47 36.02 61.48 36.02 61.48 16.49" style="fill:#183B57"/><path d="M100.61,32.78a13.92,13.92,0,0,1-18.39.86,13.27,13.27,0,0,1-1-19.84,13.87,13.87,0,0,1,19.37,0,13,13,0,0,1,4,9.48,13,13,0,0,1-4,9.5m-3-9.5c0-4.16-2.81-7.5-6.71-7.5s-6.71,3.31-6.71,7.5,2.63,7.52,6.71,7.52,6.71-3.33,6.71-7.52" style="fill:#183B57"/><path d="M132.32,36,130.82,25c-.22-1.54-.41-3.44-.53-5.74a38.71,38.71,0,0,1-1.19,4.82l-3.48,12H121l-3.48-12a35.73,35.73,0,0,1-1.18-4.82c-.13,2.3-.35,4.2-.56,5.74L114.24,36h-6.48l3.94-25.58h6.91l3.86,13.2a18.63,18.63,0,0,1,.82,3.46,23.31,23.31,0,0,1,.78-3.5L128,10.45h6.91L138.82,36Z" style="fill:#183B57"/><path d="M149.81,10.45h8.74L167.38,36h-6.94l-1.29-4.59h-9.91L147.9,36H141Zm7.88,16L155.06,18c-.1-.38-.39-1.53-.85-3.43-.47,1.9-.79,3.05-.9,3.43l-2.57,8.45Z" style="fill:#183B57"/><path d="M177.71,31.27c1.94,0,3.18-1.15,3.18-2.64,0-2-1.38-2.66-4.29-3.4-4.61-1.23-6.87-3.1-6.87-7.09,0-4.77,3.46-8.31,8.84-8.31a12.84,12.84,0,0,1,7.59,2.29l-2.18,5a7.78,7.78,0,0,0-4.91-2.05c-1.71,0-2.82.93-2.82,2.14,0,1.83,1.76,2.23,4.07,2.84,4.54,1.21,7.05,2.88,7.05,7.6,0,5.35-3.79,9-9.81,9A12.24,12.24,0,0,1,168.48,33l3.13-5.19c2.06,2.32,4.06,3.51,6.1,3.51" style="fill:#183B57"/><polygon points="154.26 3.69 159.97 3.66 156.05 8.07 152.2 8.09 154.26 3.69" style="fill:#183B57"/></svg>
