<?xml version="1.0" encoding="utf-8"?>
<!-- Generator: Adobe Illustrator 23.0.3, SVG Export Plug-In . SVG Version: 6.00 Build 0)  -->
<svg version="1.1" id="Capa_1" xmlns="http://www.w3.org/2000/svg" xmlns:xlink="http://www.w3.org/1999/xlink" x="0px" y="0px"
	 viewBox="0 0 72.88 47.3" style="enable-background:new 0 0 72.88 47.3;" xml:space="preserve">
<style type="text/css">
	.st0{fill:#FFFFFF;}
	.st1{fill:none;stroke:#1D4768;stroke-width:2;stroke-miterlimit:10;}
	.st2{fill:#FF6600;}
	.st3{fill:#1C4868;}
	.st4{fill:url(#SVGID_1_);}
	.st5{fill:url(#SVGID_2_);}
	.st6{fill:#FFCD10;}
	.st7{fill:#1D4768;}
	.st8{fill:#1B4869;stroke:#FFFFFF;stroke-width:3.1998;stroke-miterlimit:10;}
	.st9{fill:#FFCE5A;}
	.st10{fill:#B4DAF2;}
	.st11{fill:#9CBFE3;}
	.st12{fill:none;stroke:#FFFFFF;stroke-width:1.1875;stroke-linecap:round;stroke-linejoin:round;stroke-miterlimit:10;}
	.st13{fill:none;stroke:#F7A533;stroke-width:0.8313;stroke-miterlimit:10;}
	.st14{fill:none;stroke:#7CA3D3;stroke-width:0.4818;stroke-linecap:round;stroke-linejoin:round;stroke-miterlimit:10;}
	.st15{fill:url(#SVGID_3_);}
	.st16{fill:none;stroke:#FFFFFF;stroke-width:0.3435;stroke-linecap:round;stroke-linejoin:round;stroke-miterlimit:10;}
	.st17{opacity:0.5;fill:#FFFFFF;}
	.st18{clip-path:url(#SVGID_5_);}
	.st19{fill:#1E994C;}
	.st20{fill:#93D566;}
	.st21{fill:#1B4869;}
	.st22{fill:#363E45;}
	.st23{fill:#42BFC4;}
	.st24{fill:#F6F0EA;}
	.st25{fill:url(#SVGID_6_);}
	.st26{fill:url(#SVGID_7_);}
	.st27{fill:url(#SVGID_8_);}
</style>
<g>
	<path class="st0" d="M36.44,0c-6.56,0-11.88,5.32-11.88,11.87c0,6.57,5.32,11.89,11.88,11.89c6.56,0,11.88-5.32,11.88-11.89
		C48.32,5.32,43,0,36.44,0 M36.44,3.85c3.44,0,6.38,2.18,7.52,5.22H28.93C30.07,6.02,32.99,3.85,36.44,3.85 M28.51,13.07h5.94v6.58
		C31.36,18.85,28.99,16.27,28.51,13.07 M38.43,19.65v-6.58h5.94C43.9,16.27,41.53,18.85,38.43,19.65"/>
	<polygon class="st0" points="3.65,36.18 0,36.18 0,32.86 11.22,32.86 11.22,36.18 7.5,36.18 7.5,46.92 3.65,46.92 	"/>
	<path class="st0" d="M25.17,45.13c-1.43,1.4-3.36,2.16-5.33,2.16c-1.72,0-3.43-0.6-4.79-1.69c-1.77-1.41-2.73-3.42-2.73-5.69
		c0-2,0.76-3.82,2.2-5.21c1.42-1.38,3.35-2.17,5.33-2.17c1.96,0,3.91,0.79,5.33,2.17c1.44,1.39,2.19,3.23,2.19,5.21
		C27.36,41.92,26.59,43.75,25.17,45.13 M23.53,39.91c0-2.28-1.54-4.13-3.68-4.13c-2.17,0-3.69,1.82-3.69,4.13
		c0,2.32,1.45,4.13,3.69,4.13C22.02,44.05,23.53,42.22,23.53,39.91"/>
	<path class="st0" d="M42.61,46.92l-0.83-6.08c-0.12-0.84-0.22-1.89-0.29-3.15c-0.2,1.25-0.5,2.09-0.65,2.64l-1.91,6.59h-2.56
		l-1.92-6.59c-0.15-0.55-0.45-1.4-0.65-2.64c-0.07,1.26-0.19,2.31-0.31,3.15l-0.82,6.08H29.1l2.17-14.07h3.8l2.13,7.26
		c0.14,0.45,0.33,1.06,0.45,1.9c0.1-0.78,0.28-1.42,0.43-1.93l2.15-7.24h3.8l2.17,14.07H42.61z"/>
	<path class="st0" d="M52.23,32.86h4.8l4.86,14.07h-3.82l-0.71-2.52h-5.45l-0.74,2.52h-3.81L52.23,32.86z M56.56,41.67l-1.45-4.64
		c-0.06-0.21-0.22-0.84-0.47-1.89c-0.26,1.05-0.43,1.68-0.5,1.89l-1.41,4.64H56.56z"/>
	<path class="st0" d="M67.57,44.3c1.06,0,1.75-0.63,1.75-1.45c0-1.12-0.76-1.46-2.36-1.87c-2.54-0.67-3.78-1.7-3.78-3.89
		c0-2.63,1.9-4.57,4.86-4.57c1.57,0,2.96,0.41,4.18,1.26l-1.2,2.76c-0.89-0.74-1.83-1.13-2.7-1.13c-0.94,0-1.55,0.51-1.55,1.18
		c0,1.01,0.97,1.22,2.24,1.56c2.5,0.67,3.88,1.59,3.88,4.19c0,2.94-2.09,4.96-5.4,4.96c-1.98,0-3.48-0.62-5-2.06l1.73-2.86
		C65.35,43.65,66.45,44.3,67.57,44.3"/>
	<polygon class="st0" points="54.67,29.14 57.82,29.12 55.66,31.55 53.54,31.56 	"/>
</g>
</svg>
